<svg width="25" height="25" viewBox="0 0 25 25" fill="none" xmlns="http://www.w3.org/2000/svg">
<path opacity="0.3" fill-rule="evenodd" clip-rule="evenodd" d="M10.2116 12.777L8.01867 14.91C7.61497 15.3027 7.61497 15.9394 8.01867 16.332C8.42238 16.7247 9.07691 16.7247 9.48062 16.332L11.6735 14.199L12.4045 14.91C13.2119 15.6954 13.2119 16.9687 12.4045 17.754L9.48062 20.598C8.67321 21.3834 7.36414 21.3834 6.55673 20.598L3.63284 17.754C2.82543 16.9687 2.82543 15.6954 3.63284 14.91L6.55673 12.066C7.36414 11.2807 8.67321 11.2807 9.48062 12.066L10.2116 12.777Z" fill="white"/>
<path fill-rule="evenodd" clip-rule="evenodd" d="M14.5982 11.355L16.7911 9.22205C17.1948 8.82937 17.1948 8.19272 16.7911 7.80005C16.3874 7.40737 15.7329 7.40737 15.3292 7.80005L13.1363 9.93305L12.4053 9.22205C11.5979 8.4367 11.5979 7.1634 12.4053 6.37805L15.3292 3.53405C16.1366 2.7487 17.4457 2.7487 18.2531 3.53405L21.177 6.37805C21.9844 7.1634 21.9844 8.4367 21.177 9.22205L18.2531 12.066C17.4457 12.8514 16.1366 12.8514 15.3292 12.066L14.5982 11.355Z" fill="white"/>
<path opacity="0.3" fill-rule="evenodd" clip-rule="evenodd" d="M4.34744 5.65001C3.95324 5.26659 3.95324 4.64493 4.34744 4.26151L4.38186 4.22803C4.77606 3.84461 5.41518 3.84461 5.80939 4.22803L7.30574 5.68348C7.69994 6.06691 7.69994 6.68856 7.30574 7.07199L7.27133 7.10546C6.87713 7.48888 6.238 7.48888 5.8438 7.10546L4.34744 5.65001ZM8.62391 2.45115C8.62391 1.93849 9.08674 1.5229 9.65766 1.5229C10.2286 1.5229 10.6914 1.93849 10.6914 2.45115L10.6914 4.61662C10.6914 5.12928 10.2286 5.54487 9.65766 5.54487C9.08674 5.54487 8.62391 5.12928 8.62391 4.61662L8.62391 2.45115ZM1.74305 9.16185C1.74305 8.64002 2.21416 8.21699 2.7953 8.21699H4.82683C5.40798 8.21699 5.87909 8.64002 5.87908 9.16185V9.28366C5.87909 9.8055 5.40798 10.2285 4.82683 10.2285L2.7953 10.2285C2.21416 10.2285 1.74305 9.80549 1.74305 9.28366L1.74305 9.16185Z" fill="white"/>
<path opacity="0.3" fill-rule="evenodd" clip-rule="evenodd" d="M18.8751 19.7816C19.2693 20.165 19.9085 20.165 20.3027 19.7816L20.3371 19.7481C20.7313 19.3647 20.7313 18.743 20.3371 18.3596L18.8407 16.9042C18.4465 16.5207 17.8074 16.5207 17.4132 16.9042L17.3788 16.9376C16.9846 17.3211 16.9846 17.9427 17.3788 18.3261L18.8751 19.7816ZM22.0659 15.6209C22.6471 15.6209 23.1182 15.1978 23.1182 14.676V14.5542C23.1182 14.0324 22.6471 13.6094 22.0659 13.6094L20.0344 13.6094C19.4533 13.6094 18.9822 14.0324 18.9822 14.5542V14.676C18.9822 15.1978 19.4533 15.6209 20.0344 15.6209L22.0659 15.6209ZM15.2036 22.3142C15.7745 22.3142 16.2373 21.8986 16.2373 21.386L16.2373 19.2204C16.2373 18.7077 15.7745 18.2921 15.2036 18.2921C14.6327 18.2921 14.1698 18.7077 14.1698 19.2204L14.1698 21.386C14.1698 21.8986 14.6327 22.3142 15.2036 22.3142Z" fill="white"/>
</svg>
