<svg width="24" height="24" viewBox="0 0 24 24" fill="none" xmlns="http://www.w3.org/2000/svg">
<path fill-rule="evenodd" clip-rule="evenodd" d="M9 4.86108C9 4.3088 9.44772 3.86108 10 3.86108H21C21.5523 3.86108 22 4.3088 22 4.86108V6.72223C22 7.27451 21.5523 7.72223 21 7.72223H10C9.44772 7.72223 9 7.27451 9 6.72223V4.86108ZM9 10.6528C9 10.1005 9.44772 9.6528 10 9.6528H21C21.5523 9.6528 22 10.1005 22 10.6528V12.5139C22 13.0662 21.5523 13.5139 21 13.5139H10C9.44772 13.5139 9 13.0662 9 12.5139V10.6528ZM10 15.4445C9.44772 15.4445 9 15.8922 9 16.4445V18.3057C9 18.8579 9.44772 19.3057 10 19.3057H21C21.5523 19.3057 22 18.8579 22 18.3057V16.4445C22 15.8922 21.5523 15.4445 21 15.4445H10Z" fill="white"/>
<rect opacity="0.3" x="2" y="3.86108" width="5" height="15.4446" rx="1" fill="white"/>
</svg>
