<svg width="22" height="15" viewBox="0 0 22 15" fill="none" xmlns="http://www.w3.org/2000/svg">
<path d="M10.9999 2.90625C10.0308 2.90625 9.08344 3.17567 8.27765 3.68044C7.47185 4.1852 6.84381 4.90265 6.47295 5.74205C6.10208 6.58145 6.00504 7.5051 6.19411 8.3962C6.38318 9.2873 6.84985 10.1058 7.53513 10.7483C8.2204 11.3907 9.09349 11.8282 10.044 12.0055C10.9945 12.1827 11.9797 12.0918 12.8751 11.7441C13.7704 11.3964 14.5357 10.8076 15.0741 10.0522C15.6125 9.29671 15.8999 8.40856 15.8999 7.5C15.8999 6.28166 15.3836 5.11322 14.4647 4.25173C13.5458 3.39023 12.2995 2.90625 10.9999 2.90625ZM10.9999 10.4062C10.3868 10.4062 9.78746 10.2358 9.27767 9.91646C8.76788 9.59712 8.37055 9.14322 8.13592 8.61217C7.90129 8.08113 7.8399 7.49678 7.95951 6.93302C8.07912 6.36926 8.37437 5.85142 8.80791 5.44497C9.24145 5.03852 9.79381 4.76173 10.3951 4.64959C10.9965 4.53745 11.6198 4.59501 12.1862 4.81497C12.7527 5.03494 13.2368 5.40744 13.5775 5.88537C13.9181 6.3633 14.0999 6.9252 14.0999 7.5C14.0999 8.27079 13.7733 9.01 13.1919 9.55503C12.6106 10.1001 11.8221 10.4062 10.9999 10.4062ZM21.6899 6.3C21.2981 5.544 20.7855 4.84849 20.1699 4.2375C19.0104 3.0826 17.6597 2.11072 16.1699 1.35937C14.5915 0.515708 12.8161 0.0488755 10.9999 0C8.23732 0.135604 5.60024 1.12452 3.49998 2.8125C2.57941 3.49194 1.75598 4.27966 1.04999 5.15625C0.765272 5.52462 0.517549 5.91692 0.309998 6.32812C0.121136 6.69438 0.0155687 7.09345 0 7.5C0.0113841 7.91608 0.117056 8.32514 0.309998 8.7C0.701771 9.456 1.21434 10.1515 1.82999 10.7625C2.98944 11.9174 4.34013 12.8893 5.82996 13.6406C7.40833 14.4843 9.18378 14.9511 10.9999 15C13.7625 14.8644 16.3996 13.8755 18.4999 12.1875C19.4362 11.5198 20.2764 10.7415 20.9999 9.87187C21.2846 9.5035 21.5323 9.1112 21.7399 8.7C21.9156 8.32159 22.0042 7.91269 21.9998 7.5C21.9885 7.08392 21.8828 6.67486 21.6899 6.3ZM19.8599 7.94063C19.5535 8.51043 19.1593 9.0348 18.6899 9.49687C17.6976 10.4923 16.5433 11.334 15.2699 11.9906C13.9674 12.6915 12.501 13.0811 10.9999 13.125C8.69644 12.9946 6.50162 12.1616 4.74997 10.7531C3.96954 10.176 3.2706 9.50814 2.66998 8.76562C2.4656 8.50714 2.28812 8.23087 2.13999 7.94063C2.06867 7.80165 2.02142 7.65291 1.99999 7.5C2.02142 7.34709 2.06867 7.19835 2.13999 7.05937C2.44635 6.48957 2.84058 5.96519 3.30998 5.50312C4.30223 4.50766 5.45655 3.66596 6.72995 3.00938C8.03241 2.30846 9.49887 1.91888 10.9999 1.875C13.3034 2.00545 15.4982 2.83839 17.2499 4.24687C18.0303 4.824 18.7292 5.49186 19.3299 6.23437C19.5342 6.49286 19.7117 6.76913 19.8599 7.05937C19.9312 7.19835 19.9784 7.34709 19.9999 7.5C19.9784 7.65291 19.9312 7.80165 19.8599 7.94063Z" fill="#979797"/>
</svg>
