<svg width="252" height="245" viewBox="0 0 252 245" fill="none" xmlns="http://www.w3.org/2000/svg">
<g filter="url(#filter0_d_2_40177)">
<rect x="4" width="244" height="237" rx="16" fill="#F7F9FA"/>
</g>
<path d="M97.6992 105.691L89.6133 103.758L92.5312 77.8125H121.289V86.0039H100.863L99.5977 97.3594C100.277 96.9609 101.309 96.5391 102.691 96.0938C104.074 95.625 105.621 95.3906 107.332 95.3906C109.816 95.3906 112.02 95.7773 113.941 96.5508C115.863 97.3242 117.492 98.4492 118.828 99.9258C120.188 101.402 121.219 103.207 121.922 105.34C122.625 107.473 122.977 109.887 122.977 112.582C122.977 114.855 122.625 117.023 121.922 119.086C121.219 121.125 120.152 122.953 118.723 124.57C117.293 126.164 115.5 127.418 113.344 128.332C111.188 129.246 108.633 129.703 105.68 129.703C103.477 129.703 101.344 129.375 99.2812 128.719C97.2422 128.062 95.4023 127.09 93.7617 125.801C92.1445 124.512 90.8438 122.953 89.8594 121.125C88.8984 119.273 88.3945 117.164 88.3477 114.797H98.4023C98.543 116.25 98.918 117.504 99.5273 118.559C100.16 119.59 100.992 120.387 102.023 120.949C103.055 121.512 104.262 121.793 105.645 121.793C106.934 121.793 108.035 121.547 108.949 121.055C109.863 120.562 110.602 119.883 111.164 119.016C111.727 118.125 112.137 117.094 112.395 115.922C112.676 114.727 112.816 113.438 112.816 112.055C112.816 110.672 112.652 109.418 112.324 108.293C111.996 107.168 111.492 106.195 110.812 105.375C110.133 104.555 109.266 103.922 108.211 103.477C107.18 103.031 105.973 102.809 104.59 102.809C102.715 102.809 101.262 103.102 100.23 103.688C99.2227 104.273 98.3789 104.941 97.6992 105.691ZM139.043 105.691L130.957 103.758L133.875 77.8125H162.633V86.0039H142.207L140.941 97.3594C141.621 96.9609 142.652 96.5391 144.035 96.0938C145.418 95.625 146.965 95.3906 148.676 95.3906C151.16 95.3906 153.363 95.7773 155.285 96.5508C157.207 97.3242 158.836 98.4492 160.172 99.9258C161.531 101.402 162.562 103.207 163.266 105.34C163.969 107.473 164.32 109.887 164.32 112.582C164.32 114.855 163.969 117.023 163.266 119.086C162.562 121.125 161.496 122.953 160.066 124.57C158.637 126.164 156.844 127.418 154.688 128.332C152.531 129.246 149.977 129.703 147.023 129.703C144.82 129.703 142.688 129.375 140.625 128.719C138.586 128.062 136.746 127.09 135.105 125.801C133.488 124.512 132.188 122.953 131.203 121.125C130.242 119.273 129.738 117.164 129.691 114.797H139.746C139.887 116.25 140.262 117.504 140.871 118.559C141.504 119.59 142.336 120.387 143.367 120.949C144.398 121.512 145.605 121.793 146.988 121.793C148.277 121.793 149.379 121.547 150.293 121.055C151.207 120.562 151.945 119.883 152.508 119.016C153.07 118.125 153.48 117.094 153.738 115.922C154.02 114.727 154.16 113.438 154.16 112.055C154.16 110.672 153.996 109.418 153.668 108.293C153.34 107.168 152.836 106.195 152.156 105.375C151.477 104.555 150.609 103.922 149.555 103.477C148.523 103.031 147.316 102.809 145.934 102.809C144.059 102.809 142.605 103.102 141.574 103.688C140.566 104.273 139.723 104.941 139.043 105.691Z" fill="#00CE08"/>
<path d="M44.9871 213C44.7471 213 44.5471 212.92 44.3871 212.76C44.2271 212.6 44.1471 212.407 44.1471 212.18V199.82H45.8471V212.18C45.8471 212.407 45.7671 212.6 45.6071 212.76C45.4471 212.92 45.2404 213 44.9871 213ZM40.3471 200.52C40.1204 200.52 39.9271 200.453 39.7671 200.32C39.6204 200.173 39.5471 199.987 39.5471 199.76C39.5471 199.533 39.6204 199.353 39.7671 199.22C39.9271 199.073 40.1204 199 40.3471 199H49.6471C49.8738 199 50.0671 199.073 50.2271 199.22C50.3871 199.353 50.4671 199.533 50.4671 199.76C50.4671 200 50.3871 200.187 50.2271 200.32C50.0671 200.453 49.8738 200.52 49.6471 200.52H40.3471ZM55.1213 213.2C54.0547 213.2 53.1213 212.973 52.3213 212.52C51.5213 212.067 50.8947 211.447 50.4413 210.66C50.0013 209.86 49.7813 208.94 49.7813 207.9C49.7813 206.74 50.008 205.753 50.4613 204.94C50.928 204.113 51.528 203.487 52.2613 203.06C53.008 202.62 53.7947 202.4 54.6213 202.4C55.2347 202.4 55.828 202.513 56.4013 202.74C56.9747 202.967 57.4813 203.3 57.9213 203.74C58.3613 204.167 58.7147 204.687 58.9813 205.3C59.248 205.9 59.388 206.573 59.4013 207.32C59.4013 207.533 59.3213 207.713 59.1613 207.86C59.0013 208.007 58.8147 208.08 58.6013 208.08H50.7013L50.3413 206.7H58.0413L57.7213 206.98V206.54C57.668 205.993 57.4813 205.527 57.1613 205.14C56.8547 204.74 56.4747 204.433 56.0213 204.22C55.5813 204.007 55.1147 203.9 54.6213 203.9C54.2213 203.9 53.8213 203.973 53.4213 204.12C53.0347 204.253 52.6813 204.48 52.3613 204.8C52.0547 205.107 51.8013 205.507 51.6013 206C51.4147 206.493 51.3213 207.087 51.3213 207.78C51.3213 208.553 51.4747 209.233 51.7813 209.82C52.1013 210.407 52.5413 210.873 53.1013 211.22C53.6613 211.553 54.3147 211.72 55.0613 211.72C55.528 211.72 55.9347 211.66 56.2813 211.54C56.628 211.42 56.928 211.273 57.1813 211.1C57.4347 210.913 57.648 210.727 57.8213 210.54C57.9947 210.42 58.1613 210.36 58.3213 210.36C58.5213 210.36 58.6813 210.427 58.8013 210.56C58.9347 210.693 59.0013 210.853 59.0013 211.04C59.0013 211.267 58.8947 211.467 58.6813 211.64C58.308 212.053 57.8013 212.42 57.1613 212.74C56.5213 213.047 55.8413 213.2 55.1213 213.2ZM63.7162 212.18C63.7162 212.407 63.6362 212.6 63.4762 212.76C63.3162 212.92 63.1228 213 62.8962 213C62.6695 213 62.4828 212.92 62.3362 212.76C62.1895 212.6 62.1162 212.407 62.1162 212.18V199C62.1162 198.773 62.1895 198.587 62.3362 198.44C62.4962 198.28 62.6895 198.2 62.9162 198.2C63.1562 198.2 63.3495 198.28 63.4962 198.44C63.6428 198.587 63.7162 198.773 63.7162 199V212.18ZM75.4895 202.56C75.7161 202.56 75.9028 202.64 76.0495 202.8C76.2095 202.947 76.2895 203.133 76.2895 203.36V212.18C76.2895 212.407 76.2095 212.6 76.0495 212.76C75.9028 212.92 75.7161 213 75.4895 213C75.2495 213 75.0561 212.92 74.9095 212.76C74.7628 212.6 74.6895 212.407 74.6895 212.18V210.28L75.0695 210.24C75.0695 210.533 74.9695 210.853 74.7695 211.2C74.5695 211.547 74.2961 211.873 73.9495 212.18C73.6028 212.473 73.1895 212.72 72.7095 212.92C72.2428 213.107 71.7361 213.2 71.1895 213.2C70.2828 213.2 69.4695 212.967 68.7495 212.5C68.0295 212.02 67.4561 211.373 67.0295 210.56C66.6161 209.747 66.4095 208.82 66.4095 207.78C66.4095 206.727 66.6161 205.8 67.0295 205C67.4561 204.187 68.0295 203.553 68.7495 203.1C69.4695 202.633 70.2695 202.4 71.1495 202.4C71.7228 202.4 72.2561 202.493 72.7495 202.68C73.2428 202.867 73.6695 203.12 74.0295 203.44C74.4028 203.76 74.6895 204.113 74.8895 204.5C75.1028 204.887 75.2095 205.273 75.2095 205.66L74.6895 205.54V203.36C74.6895 203.133 74.7628 202.947 74.9095 202.8C75.0561 202.64 75.2495 202.56 75.4895 202.56ZM71.3695 211.72C72.0361 211.72 72.6228 211.547 73.1295 211.2C73.6495 210.853 74.0495 210.387 74.3295 209.8C74.6228 209.2 74.7695 208.527 74.7695 207.78C74.7695 207.047 74.6228 206.387 74.3295 205.8C74.0495 205.2 73.6495 204.733 73.1295 204.4C72.6228 204.053 72.0361 203.88 71.3695 203.88C70.7161 203.88 70.1295 204.047 69.6095 204.38C69.1028 204.713 68.7028 205.173 68.4095 205.76C68.1161 206.347 67.9695 207.02 67.9695 207.78C67.9695 208.527 68.1095 209.2 68.3895 209.8C68.6828 210.387 69.0828 210.853 69.5895 211.2C70.1095 211.547 70.7028 211.72 71.3695 211.72ZM84.4046 202.5C85.2846 202.5 85.9779 202.693 86.4846 203.08C87.0046 203.453 87.3713 203.96 87.5846 204.6C87.8113 205.227 87.9246 205.927 87.9246 206.7V212.18C87.9246 212.407 87.8446 212.6 87.6846 212.76C87.5379 212.92 87.3513 213 87.1246 213C86.8979 213 86.7046 212.92 86.5446 212.76C86.3979 212.6 86.3246 212.407 86.3246 212.18V206.7C86.3246 206.193 86.2513 205.74 86.1046 205.34C85.9579 204.927 85.7113 204.6 85.3646 204.36C85.0313 204.107 84.5713 203.98 83.9846 203.98C83.4379 203.98 82.9379 204.107 82.4846 204.36C82.0313 204.6 81.6713 204.927 81.4046 205.34C81.1379 205.74 81.0046 206.193 81.0046 206.7V212.18C81.0046 212.407 80.9246 212.6 80.7646 212.76C80.6179 212.92 80.4313 213 80.2046 213C79.9779 213 79.7846 212.92 79.6246 212.76C79.4779 212.6 79.4046 212.407 79.4046 212.18V199C79.4046 198.773 79.4779 198.587 79.6246 198.44C79.7846 198.28 79.9779 198.2 80.2046 198.2C80.4446 198.2 80.6379 198.28 80.7846 198.44C80.9313 198.587 81.0046 198.773 81.0046 199V204.98L80.6046 205.42C80.6713 205.073 80.8179 204.727 81.0446 204.38C81.2713 204.02 81.5579 203.7 81.9046 203.42C82.2513 203.14 82.6379 202.92 83.0646 202.76C83.4913 202.587 83.9379 202.5 84.4046 202.5ZM102.777 199C103.75 199 104.603 199.187 105.337 199.56C106.083 199.92 106.703 200.427 107.197 201.08C107.69 201.733 108.057 202.487 108.297 203.34C108.55 204.18 108.677 205.067 108.677 206C108.677 207.28 108.457 208.453 108.017 209.52C107.577 210.573 106.923 211.42 106.057 212.06C105.19 212.687 104.097 213 102.777 213H97.7768C97.5501 213 97.3568 212.92 97.1968 212.76C97.0501 212.6 96.9768 212.407 96.9768 212.18V199.8C96.9768 199.573 97.0501 199.387 97.1968 199.24C97.3568 199.08 97.5501 199 97.7768 199H102.777ZM102.577 211.44C103.603 211.44 104.437 211.193 105.077 210.7C105.73 210.207 106.203 209.547 106.497 208.72C106.803 207.893 106.957 206.987 106.957 206C106.957 205.28 106.87 204.593 106.697 203.94C106.537 203.273 106.277 202.687 105.917 202.18C105.57 201.673 105.117 201.273 104.557 200.98C104.01 200.687 103.35 200.54 102.577 200.54H98.4768L98.6368 200.38V211.64L98.5168 211.44H102.577ZM112.742 212.18C112.742 212.407 112.662 212.6 112.502 212.76C112.356 212.92 112.169 213 111.942 213C111.702 213 111.509 212.92 111.362 212.76C111.216 212.6 111.142 212.407 111.142 212.18V203.3C111.142 203.073 111.216 202.887 111.362 202.74C111.522 202.58 111.716 202.5 111.942 202.5C112.169 202.5 112.356 202.58 112.502 202.74C112.662 202.887 112.742 203.073 112.742 203.3V212.18ZM111.942 201.16C111.609 201.16 111.362 201.093 111.202 200.96C111.042 200.827 110.962 200.62 110.962 200.34V200.06C110.962 199.78 111.049 199.573 111.222 199.44C111.396 199.307 111.642 199.24 111.962 199.24C112.282 199.24 112.522 199.307 112.682 199.44C112.842 199.573 112.922 199.78 112.922 200.06V200.34C112.922 200.62 112.836 200.827 112.662 200.96C112.502 201.093 112.262 201.16 111.942 201.16ZM116.726 213C116.486 213 116.293 212.92 116.146 212.76C116 212.6 115.926 212.407 115.926 212.18V199C115.926 198.773 116 198.587 116.146 198.44C116.293 198.28 116.486 198.2 116.726 198.2C116.953 198.2 117.14 198.28 117.286 198.44C117.446 198.587 117.526 198.773 117.526 199V212.18C117.526 212.407 117.446 212.6 117.286 212.76C117.14 212.92 116.953 213 116.726 213ZM123.366 202.6C123.58 202.6 123.76 202.687 123.906 202.86C124.066 203.02 124.146 203.187 124.146 203.36C124.146 203.587 124.04 203.787 123.826 203.96L117.346 209.62L117.286 207.76L122.806 202.84C122.966 202.68 123.153 202.6 123.366 202.6ZM123.586 212.98C123.36 212.98 123.16 212.893 122.986 212.72L118.726 208.18L119.926 207.08L124.146 211.6C124.306 211.773 124.386 211.973 124.386 212.2C124.386 212.44 124.293 212.633 124.106 212.78C123.92 212.913 123.746 212.98 123.586 212.98ZM131.185 213.2C130.118 213.2 129.185 212.973 128.385 212.52C127.585 212.067 126.958 211.447 126.505 210.66C126.065 209.86 125.845 208.94 125.845 207.9C125.845 206.74 126.071 205.753 126.525 204.94C126.991 204.113 127.591 203.487 128.325 203.06C129.071 202.62 129.858 202.4 130.685 202.4C131.298 202.4 131.891 202.513 132.465 202.74C133.038 202.967 133.545 203.3 133.985 203.74C134.425 204.167 134.778 204.687 135.045 205.3C135.311 205.9 135.451 206.573 135.465 207.32C135.465 207.533 135.385 207.713 135.225 207.86C135.065 208.007 134.878 208.08 134.665 208.08H126.765L126.405 206.7H134.105L133.785 206.98V206.54C133.731 205.993 133.545 205.527 133.225 205.14C132.918 204.74 132.538 204.433 132.085 204.22C131.645 204.007 131.178 203.9 130.685 203.9C130.285 203.9 129.885 203.973 129.485 204.12C129.098 204.253 128.745 204.48 128.425 204.8C128.118 205.107 127.865 205.507 127.665 206C127.478 206.493 127.385 207.087 127.385 207.78C127.385 208.553 127.538 209.233 127.845 209.82C128.165 210.407 128.605 210.873 129.165 211.22C129.725 211.553 130.378 211.72 131.125 211.72C131.591 211.72 131.998 211.66 132.345 211.54C132.691 211.42 132.991 211.273 133.245 211.1C133.498 210.913 133.711 210.727 133.885 210.54C134.058 210.42 134.225 210.36 134.385 210.36C134.585 210.36 134.745 210.427 134.865 210.56C134.998 210.693 135.065 210.853 135.065 211.04C135.065 211.267 134.958 211.467 134.745 211.64C134.371 212.053 133.865 212.42 133.225 212.74C132.585 213.047 131.905 213.2 131.185 213.2ZM142.959 202.5C143.866 202.5 144.599 202.733 145.159 203.2C145.733 203.653 146.113 204.3 146.299 205.14H145.999L146.139 204.78C146.299 204.407 146.573 204.047 146.959 203.7C147.346 203.353 147.793 203.067 148.299 202.84C148.806 202.613 149.333 202.5 149.879 202.5C150.759 202.5 151.453 202.693 151.959 203.08C152.466 203.453 152.826 203.96 153.039 204.6C153.266 205.227 153.379 205.933 153.379 206.72V212.18C153.379 212.407 153.299 212.6 153.139 212.76C152.993 212.92 152.806 213 152.579 213C152.339 213 152.146 212.92 151.999 212.76C151.853 212.6 151.779 212.407 151.779 212.18V206.76C151.779 206.24 151.699 205.773 151.539 205.36C151.393 204.933 151.146 204.6 150.799 204.36C150.466 204.107 150.006 203.98 149.419 203.98C148.873 203.98 148.373 204.107 147.919 204.36C147.466 204.6 147.106 204.933 146.839 205.36C146.573 205.773 146.439 206.24 146.439 206.76V212.18C146.439 212.407 146.366 212.6 146.219 212.76C146.073 212.92 145.879 213 145.639 213C145.413 213 145.219 212.92 145.059 212.76C144.913 212.6 144.839 212.407 144.839 212.18V206.7C144.839 206.193 144.766 205.74 144.619 205.34C144.486 204.927 144.253 204.6 143.919 204.36C143.586 204.107 143.126 203.98 142.539 203.98C142.006 203.98 141.519 204.107 141.079 204.36C140.639 204.6 140.286 204.927 140.019 205.34C139.753 205.74 139.619 206.193 139.619 206.7V212.18C139.619 212.407 139.539 212.6 139.379 212.76C139.233 212.92 139.046 213 138.819 213C138.593 213 138.399 212.92 138.239 212.76C138.093 212.6 138.019 212.407 138.019 212.18V203.46C138.019 203.233 138.093 203.047 138.239 202.9C138.399 202.74 138.593 202.66 138.819 202.66C139.059 202.66 139.253 202.74 139.399 202.9C139.546 203.047 139.619 203.233 139.619 203.46V204.98L139.179 205.46C139.233 205.113 139.366 204.767 139.579 204.42C139.806 204.073 140.093 203.753 140.439 203.46C140.786 203.167 141.173 202.933 141.599 202.76C142.026 202.587 142.479 202.5 142.959 202.5ZM165.01 202.56C165.236 202.56 165.423 202.64 165.57 202.8C165.73 202.947 165.81 203.133 165.81 203.36V212.18C165.81 212.407 165.73 212.6 165.57 212.76C165.423 212.92 165.236 213 165.01 213C164.77 213 164.576 212.92 164.43 212.76C164.283 212.6 164.21 212.407 164.21 212.18V210.28L164.59 210.24C164.59 210.533 164.49 210.853 164.29 211.2C164.09 211.547 163.816 211.873 163.47 212.18C163.123 212.473 162.71 212.72 162.23 212.92C161.763 213.107 161.256 213.2 160.71 213.2C159.803 213.2 158.99 212.967 158.27 212.5C157.55 212.02 156.976 211.373 156.55 210.56C156.136 209.747 155.93 208.82 155.93 207.78C155.93 206.727 156.136 205.8 156.55 205C156.976 204.187 157.55 203.553 158.27 203.1C158.99 202.633 159.79 202.4 160.67 202.4C161.243 202.4 161.776 202.493 162.27 202.68C162.763 202.867 163.19 203.12 163.55 203.44C163.923 203.76 164.21 204.113 164.41 204.5C164.623 204.887 164.73 205.273 164.73 205.66L164.21 205.54V203.36C164.21 203.133 164.283 202.947 164.43 202.8C164.576 202.64 164.77 202.56 165.01 202.56ZM160.89 211.72C161.556 211.72 162.143 211.547 162.65 211.2C163.17 210.853 163.57 210.387 163.85 209.8C164.143 209.2 164.29 208.527 164.29 207.78C164.29 207.047 164.143 206.387 163.85 205.8C163.57 205.2 163.17 204.733 162.65 204.4C162.143 204.053 161.556 203.88 160.89 203.88C160.236 203.88 159.65 204.047 159.13 204.38C158.623 204.713 158.223 205.173 157.93 205.76C157.636 206.347 157.49 207.02 157.49 207.78C157.49 208.527 157.63 209.2 157.91 209.8C158.203 210.387 158.603 210.853 159.11 211.2C159.63 211.547 160.223 211.72 160.89 211.72ZM168.345 211.36C168.225 211.187 168.172 211.007 168.185 210.82C168.198 210.62 168.312 210.447 168.525 210.3C168.658 210.207 168.812 210.167 168.985 210.18C169.172 210.193 169.338 210.28 169.485 210.44C169.858 210.88 170.285 211.233 170.765 211.5C171.245 211.753 171.832 211.88 172.525 211.88C172.845 211.867 173.165 211.813 173.485 211.72C173.805 211.627 174.072 211.467 174.285 211.24C174.512 211 174.625 210.687 174.625 210.3C174.625 209.927 174.512 209.633 174.285 209.42C174.058 209.193 173.765 209.013 173.405 208.88C173.045 208.733 172.652 208.607 172.225 208.5C171.785 208.38 171.352 208.247 170.925 208.1C170.498 207.94 170.112 207.747 169.765 207.52C169.432 207.28 169.158 206.987 168.945 206.64C168.745 206.28 168.645 205.847 168.645 205.34C168.645 204.74 168.805 204.22 169.125 203.78C169.458 203.34 169.898 203 170.445 202.76C171.005 202.52 171.612 202.4 172.265 202.4C172.638 202.4 173.025 202.447 173.425 202.54C173.838 202.62 174.238 202.767 174.625 202.98C175.012 203.18 175.352 203.46 175.645 203.82C175.765 203.953 175.832 204.12 175.845 204.32C175.858 204.52 175.772 204.7 175.585 204.86C175.438 204.967 175.272 205.013 175.085 205C174.912 204.987 174.765 204.92 174.645 204.8C174.365 204.467 174.012 204.213 173.585 204.04C173.172 203.853 172.712 203.76 172.205 203.76C171.885 203.76 171.572 203.807 171.265 203.9C170.958 203.993 170.698 204.153 170.485 204.38C170.285 204.593 170.185 204.893 170.185 205.28C170.198 205.64 170.318 205.933 170.545 206.16C170.772 206.387 171.078 206.573 171.465 206.72C171.852 206.853 172.278 206.987 172.745 207.12C173.172 207.227 173.578 207.353 173.965 207.5C174.365 207.633 174.725 207.813 175.045 208.04C175.365 208.267 175.618 208.56 175.805 208.92C175.992 209.267 176.085 209.707 176.085 210.24C176.085 210.853 175.912 211.387 175.565 211.84C175.218 212.28 174.758 212.62 174.185 212.86C173.625 213.087 173.018 213.2 172.365 213.2C171.632 213.2 170.905 213.06 170.185 212.78C169.478 212.5 168.865 212.027 168.345 211.36ZM179.508 213C179.268 213 179.074 212.92 178.928 212.76C178.781 212.6 178.708 212.407 178.708 212.18V199C178.708 198.773 178.781 198.587 178.928 198.44C179.074 198.28 179.268 198.2 179.508 198.2C179.734 198.2 179.921 198.28 180.068 198.44C180.228 198.587 180.308 198.773 180.308 199V212.18C180.308 212.407 180.228 212.6 180.068 212.76C179.921 212.92 179.734 213 179.508 213ZM186.148 202.6C186.361 202.6 186.541 202.687 186.688 202.86C186.848 203.02 186.928 203.187 186.928 203.36C186.928 203.587 186.821 203.787 186.608 203.96L180.128 209.62L180.068 207.76L185.588 202.84C185.748 202.68 185.934 202.6 186.148 202.6ZM186.368 212.98C186.141 212.98 185.941 212.893 185.768 212.72L181.508 208.18L182.708 207.08L186.928 211.6C187.088 211.773 187.168 211.973 187.168 212.2C187.168 212.44 187.074 212.633 186.888 212.78C186.701 212.913 186.528 212.98 186.368 212.98ZM191.175 212.18C191.175 212.407 191.095 212.6 190.935 212.76C190.788 212.92 190.602 213 190.375 213C190.135 213 189.942 212.92 189.795 212.76C189.648 212.6 189.575 212.407 189.575 212.18V203.3C189.575 203.073 189.648 202.887 189.795 202.74C189.955 202.58 190.148 202.5 190.375 202.5C190.602 202.5 190.788 202.58 190.935 202.74C191.095 202.887 191.175 203.073 191.175 203.3V212.18ZM190.375 201.16C190.042 201.16 189.795 201.093 189.635 200.96C189.475 200.827 189.395 200.62 189.395 200.34V200.06C189.395 199.78 189.482 199.573 189.655 199.44C189.828 199.307 190.075 199.24 190.395 199.24C190.715 199.24 190.955 199.307 191.115 199.44C191.275 199.573 191.355 199.78 191.355 200.06V200.34C191.355 200.62 191.268 200.827 191.095 200.96C190.935 201.093 190.695 201.16 190.375 201.16ZM199.339 202.4C200.246 202.4 200.959 202.587 201.479 202.96C201.999 203.333 202.366 203.833 202.579 204.46C202.806 205.087 202.919 205.787 202.919 206.56V212.18C202.919 212.407 202.839 212.6 202.679 212.76C202.532 212.92 202.346 213 202.119 213C201.892 213 201.699 212.92 201.539 212.76C201.392 212.6 201.319 212.407 201.319 212.18V206.6C201.319 206.093 201.239 205.64 201.079 205.24C200.932 204.827 200.679 204.5 200.319 204.26C199.972 204.007 199.492 203.88 198.879 203.88C198.319 203.88 197.806 204.007 197.339 204.26C196.872 204.5 196.499 204.827 196.219 205.24C195.939 205.64 195.799 206.093 195.799 206.6V212.18C195.799 212.407 195.719 212.6 195.559 212.76C195.412 212.92 195.226 213 194.999 213C194.772 213 194.579 212.92 194.419 212.76C194.272 212.6 194.199 212.407 194.199 212.18V203.46C194.199 203.233 194.272 203.047 194.419 202.9C194.579 202.74 194.772 202.66 194.999 202.66C195.239 202.66 195.432 202.74 195.579 202.9C195.726 203.047 195.799 203.233 195.799 203.46V204.88L195.399 205.32C195.466 204.973 195.619 204.627 195.859 204.28C196.099 203.92 196.399 203.6 196.759 203.32C197.119 203.04 197.519 202.82 197.959 202.66C198.399 202.487 198.859 202.4 199.339 202.4ZM207.569 212.18C207.569 212.407 207.489 212.6 207.329 212.76C207.182 212.92 206.995 213 206.769 213C206.529 213 206.335 212.92 206.189 212.76C206.042 212.6 205.969 212.407 205.969 212.18V203.3C205.969 203.073 206.042 202.887 206.189 202.74C206.349 202.58 206.542 202.5 206.769 202.5C206.995 202.5 207.182 202.58 207.329 202.74C207.489 202.887 207.569 203.073 207.569 203.3V212.18ZM206.769 201.16C206.435 201.16 206.189 201.093 206.029 200.96C205.869 200.827 205.789 200.62 205.789 200.34V200.06C205.789 199.78 205.875 199.573 206.049 199.44C206.222 199.307 206.469 199.24 206.789 199.24C207.109 199.24 207.349 199.307 207.509 199.44C207.669 199.573 207.749 199.78 207.749 200.06V200.34C207.749 200.62 207.662 200.827 207.489 200.96C207.329 201.093 207.089 201.16 206.769 201.16Z" fill="black" fill-opacity="0.87"/>
<defs>
<filter id="filter0_d_2_40177" x="0" y="0" width="252" height="245" filterUnits="userSpaceOnUse" color-interpolation-filters="sRGB">
<feFlood flood-opacity="0" result="BackgroundImageFix"/>
<feColorMatrix in="SourceAlpha" type="matrix" values="0 0 0 0 0 0 0 0 0 0 0 0 0 0 0 0 0 0 127 0" result="hardAlpha"/>
<feOffset dy="4"/>
<feGaussianBlur stdDeviation="2"/>
<feComposite in2="hardAlpha" operator="out"/>
<feColorMatrix type="matrix" values="0 0 0 0 0 0 0 0 0 0 0 0 0 0 0 0 0 0 0.25 0"/>
<feBlend mode="normal" in2="BackgroundImageFix" result="effect1_dropShadow_2_40177"/>
<feBlend mode="normal" in="SourceGraphic" in2="effect1_dropShadow_2_40177" result="shape"/>
</filter>
</defs>
</svg>
