<svg width="252" height="245" viewBox="0 0 252 245" fill="none" xmlns="http://www.w3.org/2000/svg">
<g filter="url(#filter0_d_2_40182)">
<rect x="4" width="244" height="237" rx="16" fill="#F7F9FA"/>
</g>
<path d="M112.852 77.707V129H102.727V89.3789L90.5625 93.2461V85.2656L111.762 77.707H112.852ZM164.531 121.09V129H129.516V122.25L146.074 104.496C147.738 102.645 149.051 101.016 150.012 99.6094C150.973 98.1797 151.664 96.9023 152.086 95.7773C152.531 94.6289 152.754 93.5391 152.754 92.5078C152.754 90.9609 152.496 89.6367 151.98 88.5352C151.465 87.4102 150.703 86.543 149.695 85.9336C148.711 85.3242 147.492 85.0195 146.039 85.0195C144.492 85.0195 143.156 85.3945 142.031 86.1445C140.93 86.8945 140.086 87.9375 139.5 89.2734C138.938 90.6094 138.656 92.1211 138.656 93.8086H128.496C128.496 90.7617 129.223 87.9727 130.676 85.4414C132.129 82.8867 134.18 80.8594 136.828 79.3594C139.477 77.8359 142.617 77.0742 146.25 77.0742C149.836 77.0742 152.859 77.6602 155.32 78.832C157.805 79.9805 159.68 81.6445 160.945 83.8242C162.234 85.9805 162.879 88.5586 162.879 91.5586C162.879 93.2461 162.609 94.8984 162.07 96.5156C161.531 98.1094 160.758 99.7031 159.75 101.297C158.766 102.867 157.57 104.461 156.164 106.078C154.758 107.695 153.199 109.371 151.488 111.105L142.594 121.09H164.531Z" fill="#1F80DA"/>
<path d="M54.9292 201C56.1025 201 57.0025 201.307 57.6292 201.92C58.2692 202.52 58.5892 203.373 58.5892 204.48C58.5892 205.067 58.4559 205.607 58.1892 206.1C57.9225 206.593 57.5292 206.987 57.0092 207.28C56.5025 207.573 55.8759 207.733 55.1292 207.76L55.0892 207.2C55.5559 207.2 56.0359 207.267 56.5292 207.4C57.0225 207.533 57.4759 207.747 57.8892 208.04C58.3159 208.333 58.6559 208.72 58.9092 209.2C59.1759 209.68 59.3092 210.273 59.3092 210.98C59.3092 211.74 59.1825 212.38 58.9292 212.9C58.6759 213.407 58.3359 213.82 57.9092 214.14C57.4959 214.447 57.0292 214.667 56.5092 214.8C56.0025 214.933 55.4892 215 54.9692 215H49.7092C49.4825 215 49.2892 214.92 49.1292 214.76C48.9825 214.6 48.9092 214.407 48.9092 214.18V201.8C48.9092 201.573 48.9825 201.387 49.1292 201.24C49.2892 201.08 49.4825 201 49.7092 201H54.9292ZM54.6892 202.58H50.3892L50.6292 202.22V207.2L50.4092 206.94H54.7292C55.3159 206.94 55.8159 206.753 56.2292 206.38C56.6559 205.993 56.8692 205.427 56.8692 204.68C56.8692 204.013 56.6759 203.5 56.2892 203.14C55.9025 202.767 55.3692 202.58 54.6892 202.58ZM54.8492 208.54H50.4892L50.6292 208.4V213.62L50.4692 213.44H54.9092C55.6959 213.44 56.3359 213.24 56.8292 212.84C57.3359 212.44 57.5892 211.82 57.5892 210.98C57.5892 210.327 57.4559 209.827 57.1892 209.48C56.9225 209.12 56.5759 208.873 56.1492 208.74C55.7359 208.607 55.3025 208.54 54.8492 208.54ZM66.6061 215.2C65.5394 215.2 64.6061 214.973 63.8061 214.52C63.0061 214.067 62.3794 213.447 61.9261 212.66C61.4861 211.86 61.2661 210.94 61.2661 209.9C61.2661 208.74 61.4928 207.753 61.9461 206.94C62.4128 206.113 63.0128 205.487 63.7461 205.06C64.4928 204.62 65.2794 204.4 66.1061 204.4C66.7194 204.4 67.3128 204.513 67.8861 204.74C68.4594 204.967 68.9661 205.3 69.4061 205.74C69.8461 206.167 70.1994 206.687 70.4661 207.3C70.7328 207.9 70.8728 208.573 70.8861 209.32C70.8861 209.533 70.8061 209.713 70.6461 209.86C70.4861 210.007 70.2994 210.08 70.0861 210.08H62.1861L61.8261 208.7H69.5261L69.2061 208.98V208.54C69.1528 207.993 68.9661 207.527 68.6461 207.14C68.3394 206.74 67.9594 206.433 67.5061 206.22C67.0661 206.007 66.5994 205.9 66.1061 205.9C65.7061 205.9 65.3061 205.973 64.9061 206.12C64.5194 206.253 64.1661 206.48 63.8461 206.8C63.5394 207.107 63.2861 207.507 63.0861 208C62.8994 208.493 62.8061 209.087 62.8061 209.78C62.8061 210.553 62.9594 211.233 63.2661 211.82C63.5861 212.407 64.0261 212.873 64.5861 213.22C65.1461 213.553 65.7994 213.72 66.5461 213.72C67.0128 213.72 67.4194 213.66 67.7661 213.54C68.1128 213.42 68.4128 213.273 68.6661 213.1C68.9194 212.913 69.1328 212.727 69.3061 212.54C69.4794 212.42 69.6461 212.36 69.8061 212.36C70.0061 212.36 70.1661 212.427 70.2861 212.56C70.4194 212.693 70.4861 212.853 70.4861 213.04C70.4861 213.267 70.3794 213.467 70.1661 213.64C69.7928 214.053 69.2861 214.42 68.6461 214.74C68.0061 215.047 67.3261 215.2 66.6061 215.2ZM75.2009 214.18C75.2009 214.407 75.1209 214.6 74.9609 214.76C74.8009 214.92 74.6076 215 74.3809 215C74.1543 215 73.9676 214.92 73.8209 214.76C73.6743 214.6 73.6009 214.407 73.6009 214.18V201C73.6009 200.773 73.6743 200.587 73.8209 200.44C73.9809 200.28 74.1743 200.2 74.4009 200.2C74.6409 200.2 74.8343 200.28 74.9809 200.44C75.1276 200.587 75.2009 200.773 75.2009 201V214.18ZM86.0966 204.66C86.3366 204.66 86.5299 204.74 86.6766 204.9C86.8232 205.047 86.8966 205.233 86.8966 205.46V210.92C86.8966 212.267 86.5166 213.313 85.7566 214.06C85.0099 214.793 83.9632 215.16 82.6166 215.16C81.2832 215.16 80.2366 214.793 79.4766 214.06C78.7299 213.313 78.3566 212.267 78.3566 210.92V205.46C78.3566 205.233 78.4299 205.047 78.5766 204.9C78.7366 204.74 78.9299 204.66 79.1566 204.66C79.3966 204.66 79.5899 204.74 79.7366 204.9C79.8832 205.047 79.9566 205.233 79.9566 205.46V210.92C79.9566 211.827 80.1899 212.513 80.6566 212.98C81.1232 213.447 81.7766 213.68 82.6166 213.68C83.4832 213.68 84.1432 213.447 84.5966 212.98C85.0632 212.513 85.2966 211.827 85.2966 210.92V205.46C85.2966 205.233 85.3699 205.047 85.5166 204.9C85.6766 204.74 85.8699 204.66 86.0966 204.66ZM94.9505 204.5C95.8571 204.5 96.5905 204.733 97.1505 205.2C97.7238 205.653 98.1038 206.3 98.2905 207.14H97.9905L98.1305 206.78C98.2905 206.407 98.5638 206.047 98.9505 205.7C99.3371 205.353 99.7838 205.067 100.29 204.84C100.797 204.613 101.324 204.5 101.87 204.5C102.75 204.5 103.444 204.693 103.95 205.08C104.457 205.453 104.817 205.96 105.03 206.6C105.257 207.227 105.37 207.933 105.37 208.72V214.18C105.37 214.407 105.29 214.6 105.13 214.76C104.984 214.92 104.797 215 104.57 215C104.33 215 104.137 214.92 103.99 214.76C103.844 214.6 103.77 214.407 103.77 214.18V208.76C103.77 208.24 103.69 207.773 103.53 207.36C103.384 206.933 103.137 206.6 102.79 206.36C102.457 206.107 101.997 205.98 101.41 205.98C100.864 205.98 100.364 206.107 99.9105 206.36C99.4571 206.6 99.0971 206.933 98.8305 207.36C98.5638 207.773 98.4305 208.24 98.4305 208.76V214.18C98.4305 214.407 98.3571 214.6 98.2105 214.76C98.0638 214.92 97.8705 215 97.6305 215C97.4038 215 97.2105 214.92 97.0505 214.76C96.9038 214.6 96.8305 214.407 96.8305 214.18V208.7C96.8305 208.193 96.7571 207.74 96.6105 207.34C96.4771 206.927 96.2438 206.6 95.9105 206.36C95.5771 206.107 95.1171 205.98 94.5305 205.98C93.9971 205.98 93.5105 206.107 93.0705 206.36C92.6305 206.6 92.2771 206.927 92.0105 207.34C91.7438 207.74 91.6105 208.193 91.6105 208.7V214.18C91.6105 214.407 91.5305 214.6 91.3705 214.76C91.2238 214.92 91.0371 215 90.8105 215C90.5838 215 90.3905 214.92 90.2305 214.76C90.0838 214.6 90.0105 214.407 90.0105 214.18V205.46C90.0105 205.233 90.0838 205.047 90.2305 204.9C90.3905 204.74 90.5838 204.66 90.8105 204.66C91.0505 204.66 91.2438 204.74 91.3905 204.9C91.5371 205.047 91.6105 205.233 91.6105 205.46V206.98L91.1705 207.46C91.2238 207.113 91.3571 206.767 91.5705 206.42C91.7971 206.073 92.0838 205.753 92.4305 205.46C92.7771 205.167 93.1638 204.933 93.5905 204.76C94.0171 204.587 94.4705 204.5 94.9505 204.5ZM120.219 201C121.192 201 122.045 201.187 122.779 201.56C123.525 201.92 124.145 202.427 124.639 203.08C125.132 203.733 125.499 204.487 125.739 205.34C125.992 206.18 126.119 207.067 126.119 208C126.119 209.28 125.899 210.453 125.459 211.52C125.019 212.573 124.365 213.42 123.499 214.06C122.632 214.687 121.539 215 120.219 215H115.219C114.992 215 114.799 214.92 114.639 214.76C114.492 214.6 114.419 214.407 114.419 214.18V201.8C114.419 201.573 114.492 201.387 114.639 201.24C114.799 201.08 114.992 201 115.219 201H120.219ZM120.019 213.44C121.045 213.44 121.879 213.193 122.519 212.7C123.172 212.207 123.645 211.547 123.939 210.72C124.245 209.893 124.399 208.987 124.399 208C124.399 207.28 124.312 206.593 124.139 205.94C123.979 205.273 123.719 204.687 123.359 204.18C123.012 203.673 122.559 203.273 121.999 202.98C121.452 202.687 120.792 202.54 120.019 202.54H115.919L116.079 202.38V213.64L115.959 213.44H120.019ZM130.184 214.18C130.184 214.407 130.104 214.6 129.944 214.76C129.797 214.92 129.611 215 129.384 215C129.144 215 128.951 214.92 128.804 214.76C128.657 214.6 128.584 214.407 128.584 214.18V205.3C128.584 205.073 128.657 204.887 128.804 204.74C128.964 204.58 129.157 204.5 129.384 204.5C129.611 204.5 129.797 204.58 129.944 204.74C130.104 204.887 130.184 205.073 130.184 205.3V214.18ZM129.384 203.16C129.051 203.16 128.804 203.093 128.644 202.96C128.484 202.827 128.404 202.62 128.404 202.34V202.06C128.404 201.78 128.491 201.573 128.664 201.44C128.837 201.307 129.084 201.24 129.404 201.24C129.724 201.24 129.964 201.307 130.124 201.44C130.284 201.573 130.364 201.78 130.364 202.06V202.34C130.364 202.62 130.277 202.827 130.104 202.96C129.944 203.093 129.704 203.16 129.384 203.16ZM132.628 213.36C132.508 213.187 132.455 213.007 132.468 212.82C132.481 212.62 132.595 212.447 132.808 212.3C132.941 212.207 133.095 212.167 133.268 212.18C133.455 212.193 133.621 212.28 133.768 212.44C134.141 212.88 134.568 213.233 135.048 213.5C135.528 213.753 136.115 213.88 136.808 213.88C137.128 213.867 137.448 213.813 137.768 213.72C138.088 213.627 138.355 213.467 138.568 213.24C138.795 213 138.908 212.687 138.908 212.3C138.908 211.927 138.795 211.633 138.568 211.42C138.341 211.193 138.048 211.013 137.688 210.88C137.328 210.733 136.935 210.607 136.508 210.5C136.068 210.38 135.635 210.247 135.208 210.1C134.781 209.94 134.395 209.747 134.048 209.52C133.715 209.28 133.441 208.987 133.228 208.64C133.028 208.28 132.928 207.847 132.928 207.34C132.928 206.74 133.088 206.22 133.408 205.78C133.741 205.34 134.181 205 134.728 204.76C135.288 204.52 135.895 204.4 136.548 204.4C136.921 204.4 137.308 204.447 137.708 204.54C138.121 204.62 138.521 204.767 138.908 204.98C139.295 205.18 139.635 205.46 139.928 205.82C140.048 205.953 140.115 206.12 140.128 206.32C140.141 206.52 140.055 206.7 139.868 206.86C139.721 206.967 139.555 207.013 139.368 207C139.195 206.987 139.048 206.92 138.928 206.8C138.648 206.467 138.295 206.213 137.868 206.04C137.455 205.853 136.995 205.76 136.488 205.76C136.168 205.76 135.855 205.807 135.548 205.9C135.241 205.993 134.981 206.153 134.768 206.38C134.568 206.593 134.468 206.893 134.468 207.28C134.481 207.64 134.601 207.933 134.828 208.16C135.055 208.387 135.361 208.573 135.748 208.72C136.135 208.853 136.561 208.987 137.028 209.12C137.455 209.227 137.861 209.353 138.248 209.5C138.648 209.633 139.008 209.813 139.328 210.04C139.648 210.267 139.901 210.56 140.088 210.92C140.275 211.267 140.368 211.707 140.368 212.24C140.368 212.853 140.195 213.387 139.848 213.84C139.501 214.28 139.041 214.62 138.468 214.86C137.908 215.087 137.301 215.2 136.648 215.2C135.915 215.2 135.188 215.06 134.468 214.78C133.761 214.5 133.148 214.027 132.628 213.36ZM151.507 204.56C151.734 204.56 151.92 204.64 152.067 204.8C152.227 204.947 152.307 205.133 152.307 205.36V214.18C152.307 214.407 152.227 214.6 152.067 214.76C151.92 214.92 151.734 215 151.507 215C151.267 215 151.074 214.92 150.927 214.76C150.78 214.6 150.707 214.407 150.707 214.18V212.28L151.087 212.24C151.087 212.533 150.987 212.853 150.787 213.2C150.587 213.547 150.314 213.873 149.967 214.18C149.62 214.473 149.207 214.72 148.727 214.92C148.26 215.107 147.754 215.2 147.207 215.2C146.3 215.2 145.487 214.967 144.767 214.5C144.047 214.02 143.474 213.373 143.047 212.56C142.634 211.747 142.427 210.82 142.427 209.78C142.427 208.727 142.634 207.8 143.047 207C143.474 206.187 144.047 205.553 144.767 205.1C145.487 204.633 146.287 204.4 147.167 204.4C147.74 204.4 148.274 204.493 148.767 204.68C149.26 204.867 149.687 205.12 150.047 205.44C150.42 205.76 150.707 206.113 150.907 206.5C151.12 206.887 151.227 207.273 151.227 207.66L150.707 207.54V205.36C150.707 205.133 150.78 204.947 150.927 204.8C151.074 204.64 151.267 204.56 151.507 204.56ZM147.387 213.72C148.054 213.72 148.64 213.547 149.147 213.2C149.667 212.853 150.067 212.387 150.347 211.8C150.64 211.2 150.787 210.527 150.787 209.78C150.787 209.047 150.64 208.387 150.347 207.8C150.067 207.2 149.667 206.733 149.147 206.4C148.64 206.053 148.054 205.88 147.387 205.88C146.734 205.88 146.147 206.047 145.627 206.38C145.12 206.713 144.72 207.173 144.427 207.76C144.134 208.347 143.987 209.02 143.987 209.78C143.987 210.527 144.127 211.2 144.407 211.8C144.7 212.387 145.1 212.853 145.607 213.2C146.127 213.547 146.72 213.72 147.387 213.72ZM160.422 204.5C161.302 204.5 161.996 204.693 162.502 205.08C163.022 205.453 163.389 205.96 163.602 206.6C163.829 207.227 163.942 207.927 163.942 208.7V214.18C163.942 214.407 163.862 214.6 163.702 214.76C163.556 214.92 163.369 215 163.142 215C162.916 215 162.722 214.92 162.562 214.76C162.416 214.6 162.342 214.407 162.342 214.18V208.7C162.342 208.193 162.269 207.74 162.122 207.34C161.976 206.927 161.729 206.6 161.382 206.36C161.049 206.107 160.589 205.98 160.002 205.98C159.456 205.98 158.956 206.107 158.502 206.36C158.049 206.6 157.689 206.927 157.422 207.34C157.156 207.74 157.022 208.193 157.022 208.7V214.18C157.022 214.407 156.942 214.6 156.782 214.76C156.636 214.92 156.449 215 156.222 215C155.996 215 155.802 214.92 155.642 214.76C155.496 214.6 155.422 214.407 155.422 214.18V201C155.422 200.773 155.496 200.587 155.642 200.44C155.802 200.28 155.996 200.2 156.222 200.2C156.462 200.2 156.656 200.28 156.802 200.44C156.949 200.587 157.022 200.773 157.022 201V206.98L156.622 207.42C156.689 207.073 156.836 206.727 157.062 206.38C157.289 206.02 157.576 205.7 157.922 205.42C158.269 205.14 158.656 204.92 159.082 204.76C159.509 204.587 159.956 204.5 160.422 204.5ZM168.017 215C167.777 215 167.583 214.92 167.437 214.76C167.29 214.6 167.217 214.407 167.217 214.18V201C167.217 200.773 167.29 200.587 167.437 200.44C167.583 200.28 167.777 200.2 168.017 200.2C168.243 200.2 168.43 200.28 168.577 200.44C168.737 200.587 168.817 200.773 168.817 201V214.18C168.817 214.407 168.737 214.6 168.577 214.76C168.43 214.92 168.243 215 168.017 215ZM174.657 204.6C174.87 204.6 175.05 204.687 175.197 204.86C175.357 205.02 175.437 205.187 175.437 205.36C175.437 205.587 175.33 205.787 175.117 205.96L168.637 211.62L168.577 209.76L174.097 204.84C174.257 204.68 174.443 204.6 174.657 204.6ZM174.877 214.98C174.65 214.98 174.45 214.893 174.277 214.72L170.017 210.18L171.217 209.08L175.437 213.6C175.597 213.773 175.677 213.973 175.677 214.2C175.677 214.44 175.583 214.633 175.397 214.78C175.21 214.913 175.037 214.98 174.877 214.98ZM186.586 204.56C186.813 204.56 186.999 204.64 187.146 204.8C187.306 204.947 187.386 205.133 187.386 205.36V214.18C187.386 214.407 187.306 214.6 187.146 214.76C186.999 214.92 186.813 215 186.586 215C186.346 215 186.153 214.92 186.006 214.76C185.859 214.6 185.786 214.407 185.786 214.18V212.28L186.166 212.24C186.166 212.533 186.066 212.853 185.866 213.2C185.666 213.547 185.393 213.873 185.046 214.18C184.699 214.473 184.286 214.72 183.806 214.92C183.339 215.107 182.833 215.2 182.286 215.2C181.379 215.2 180.566 214.967 179.846 214.5C179.126 214.02 178.553 213.373 178.126 212.56C177.713 211.747 177.506 210.82 177.506 209.78C177.506 208.727 177.713 207.8 178.126 207C178.553 206.187 179.126 205.553 179.846 205.1C180.566 204.633 181.366 204.4 182.246 204.4C182.819 204.4 183.353 204.493 183.846 204.68C184.339 204.867 184.766 205.12 185.126 205.44C185.499 205.76 185.786 206.113 185.986 206.5C186.199 206.887 186.306 207.273 186.306 207.66L185.786 207.54V205.36C185.786 205.133 185.859 204.947 186.006 204.8C186.153 204.64 186.346 204.56 186.586 204.56ZM182.466 213.72C183.133 213.72 183.719 213.547 184.226 213.2C184.746 212.853 185.146 212.387 185.426 211.8C185.719 211.2 185.866 210.527 185.866 209.78C185.866 209.047 185.719 208.387 185.426 207.8C185.146 207.2 184.746 206.733 184.226 206.4C183.719 206.053 183.133 205.88 182.466 205.88C181.813 205.88 181.226 206.047 180.706 206.38C180.199 206.713 179.799 207.173 179.506 207.76C179.213 208.347 179.066 209.02 179.066 209.78C179.066 210.527 179.206 211.2 179.486 211.8C179.779 212.387 180.179 212.853 180.686 213.2C181.206 213.547 181.799 213.72 182.466 213.72ZM195.641 204.4C196.548 204.4 197.261 204.587 197.781 204.96C198.301 205.333 198.668 205.833 198.881 206.46C199.108 207.087 199.221 207.787 199.221 208.56V214.18C199.221 214.407 199.141 214.6 198.981 214.76C198.834 214.92 198.648 215 198.421 215C198.194 215 198.001 214.92 197.841 214.76C197.694 214.6 197.621 214.407 197.621 214.18V208.6C197.621 208.093 197.541 207.64 197.381 207.24C197.234 206.827 196.981 206.5 196.621 206.26C196.274 206.007 195.794 205.88 195.181 205.88C194.621 205.88 194.108 206.007 193.641 206.26C193.174 206.5 192.801 206.827 192.521 207.24C192.241 207.64 192.101 208.093 192.101 208.6V214.18C192.101 214.407 192.021 214.6 191.861 214.76C191.714 214.92 191.528 215 191.301 215C191.074 215 190.881 214.92 190.721 214.76C190.574 214.6 190.501 214.407 190.501 214.18V205.46C190.501 205.233 190.574 205.047 190.721 204.9C190.881 204.74 191.074 204.66 191.301 204.66C191.541 204.66 191.734 204.74 191.881 204.9C192.028 205.047 192.101 205.233 192.101 205.46V206.88L191.701 207.32C191.768 206.973 191.921 206.627 192.161 206.28C192.401 205.92 192.701 205.6 193.061 205.32C193.421 205.04 193.821 204.82 194.261 204.66C194.701 204.487 195.161 204.4 195.641 204.4Z" fill="black" fill-opacity="0.87"/>
<defs>
<filter id="filter0_d_2_40182" x="0" y="0" width="252" height="245" filterUnits="userSpaceOnUse" color-interpolation-filters="sRGB">
<feFlood flood-opacity="0" result="BackgroundImageFix"/>
<feColorMatrix in="SourceAlpha" type="matrix" values="0 0 0 0 0 0 0 0 0 0 0 0 0 0 0 0 0 0 127 0" result="hardAlpha"/>
<feOffset dy="4"/>
<feGaussianBlur stdDeviation="2"/>
<feComposite in2="hardAlpha" operator="out"/>
<feColorMatrix type="matrix" values="0 0 0 0 0 0 0 0 0 0 0 0 0 0 0 0 0 0 0.25 0"/>
<feBlend mode="normal" in2="BackgroundImageFix" result="effect1_dropShadow_2_40182"/>
<feBlend mode="normal" in="SourceGraphic" in2="effect1_dropShadow_2_40182" result="shape"/>
</filter>
</defs>
</svg>
