<svg width="252" height="245" viewBox="0 0 252 245" fill="none" xmlns="http://www.w3.org/2000/svg">
<g filter="url(#filter0_d_2_40172)">
<rect x="4" width="244" height="237" rx="16" fill="#F7F9FA"/>
</g>
<path d="M116.016 121.301H116.684C119.496 121.301 121.91 120.961 123.926 120.281C125.965 119.578 127.641 118.57 128.953 117.258C130.266 115.945 131.238 114.34 131.871 112.441C132.504 110.52 132.82 108.34 132.82 105.902V96.1992C132.82 94.3477 132.633 92.7188 132.258 91.3125C131.906 89.9062 131.391 88.7461 130.711 87.832C130.055 86.8945 129.281 86.1914 128.391 85.7227C127.523 85.2539 126.562 85.0195 125.508 85.0195C124.383 85.0195 123.387 85.3008 122.52 85.8633C121.652 86.4023 120.914 87.1406 120.305 88.0781C119.719 89.0156 119.262 90.0938 118.934 91.3125C118.629 92.5078 118.477 93.7617 118.477 95.0742C118.477 96.3867 118.629 97.6406 118.934 98.8359C119.238 100.008 119.695 101.051 120.305 101.965C120.914 102.855 121.676 103.57 122.59 104.109C123.504 104.625 124.582 104.883 125.824 104.883C127.02 104.883 128.086 104.66 129.023 104.215C129.984 103.746 130.793 103.137 131.449 102.387C132.129 101.637 132.645 100.805 132.996 99.8906C133.371 98.9766 133.559 98.0508 133.559 97.1133L136.898 98.9414C136.898 100.582 136.547 102.199 135.844 103.793C135.141 105.387 134.156 106.84 132.891 108.152C131.648 109.441 130.207 110.473 128.566 111.246C126.926 112.02 125.168 112.406 123.293 112.406C120.902 112.406 118.781 111.973 116.93 111.105C115.078 110.215 113.508 108.996 112.219 107.449C110.953 105.879 109.992 104.051 109.336 101.965C108.68 99.8789 108.352 97.6172 108.352 95.1797C108.352 92.6953 108.75 90.3633 109.547 88.1836C110.367 86.0039 111.527 84.082 113.027 82.418C114.551 80.7539 116.367 79.4531 118.477 78.5156C120.609 77.5547 122.977 77.0742 125.578 77.0742C128.18 77.0742 130.547 77.5781 132.68 78.5859C134.812 79.5938 136.641 81.0234 138.164 82.875C139.688 84.7031 140.859 86.8945 141.68 89.4492C142.523 92.0039 142.945 94.8398 142.945 97.957V101.473C142.945 104.801 142.582 107.895 141.855 110.754C141.152 113.613 140.086 116.203 138.656 118.523C137.25 120.82 135.492 122.789 133.383 124.43C131.297 126.07 128.871 127.324 126.105 128.191C123.34 129.059 120.246 129.492 116.824 129.492H116.016V121.301Z" fill="#DF0000"/>
<path d="M41.6964 201C42.8697 201 43.7697 201.307 44.3964 201.92C45.0364 202.52 45.3564 203.373 45.3564 204.48C45.3564 205.067 45.2231 205.607 44.9564 206.1C44.6897 206.593 44.2964 206.987 43.7764 207.28C43.2697 207.573 42.6431 207.733 41.8964 207.76L41.8564 207.2C42.3231 207.2 42.8031 207.267 43.2964 207.4C43.7897 207.533 44.2431 207.747 44.6564 208.04C45.0831 208.333 45.4231 208.72 45.6764 209.2C45.9431 209.68 46.0764 210.273 46.0764 210.98C46.0764 211.74 45.9497 212.38 45.6964 212.9C45.4431 213.407 45.1031 213.82 44.6764 214.14C44.2631 214.447 43.7964 214.667 43.2764 214.8C42.7697 214.933 42.2564 215 41.7364 215H36.4764C36.2497 215 36.0564 214.92 35.8964 214.76C35.7497 214.6 35.6764 214.407 35.6764 214.18V201.8C35.6764 201.573 35.7497 201.387 35.8964 201.24C36.0564 201.08 36.2497 201 36.4764 201H41.6964ZM41.4564 202.58H37.1564L37.3964 202.22V207.2L37.1764 206.94H41.4964C42.0831 206.94 42.5831 206.753 42.9964 206.38C43.4231 205.993 43.6364 205.427 43.6364 204.68C43.6364 204.013 43.4431 203.5 43.0564 203.14C42.6697 202.767 42.1364 202.58 41.4564 202.58ZM41.6164 208.54H37.2564L37.3964 208.4V213.62L37.2364 213.44H41.6764C42.4631 213.44 43.1031 213.24 43.5964 212.84C44.1031 212.44 44.3564 211.82 44.3564 210.98C44.3564 210.327 44.2231 209.827 43.9564 209.48C43.6897 209.12 43.3431 208.873 42.9164 208.74C42.5031 208.607 42.0697 208.54 41.6164 208.54ZM53.3733 215.2C52.3066 215.2 51.3733 214.973 50.5733 214.52C49.7733 214.067 49.1466 213.447 48.6933 212.66C48.2533 211.86 48.0333 210.94 48.0333 209.9C48.0333 208.74 48.2599 207.753 48.7133 206.94C49.1799 206.113 49.7799 205.487 50.5133 205.06C51.2599 204.62 52.0466 204.4 52.8733 204.4C53.4866 204.4 54.0799 204.513 54.6533 204.74C55.2266 204.967 55.7333 205.3 56.1733 205.74C56.6133 206.167 56.9666 206.687 57.2333 207.3C57.4999 207.9 57.6399 208.573 57.6533 209.32C57.6533 209.533 57.5733 209.713 57.4133 209.86C57.2533 210.007 57.0666 210.08 56.8533 210.08H48.9533L48.5933 208.7H56.2933L55.9733 208.98V208.54C55.9199 207.993 55.7333 207.527 55.4133 207.14C55.1066 206.74 54.7266 206.433 54.2733 206.22C53.8333 206.007 53.3666 205.9 52.8733 205.9C52.4733 205.9 52.0733 205.973 51.6733 206.12C51.2866 206.253 50.9333 206.48 50.6133 206.8C50.3066 207.107 50.0533 207.507 49.8533 208C49.6666 208.493 49.5733 209.087 49.5733 209.78C49.5733 210.553 49.7266 211.233 50.0333 211.82C50.3533 212.407 50.7933 212.873 51.3533 213.22C51.9133 213.553 52.5666 213.72 53.3133 213.72C53.7799 213.72 54.1866 213.66 54.5333 213.54C54.8799 213.42 55.1799 213.273 55.4333 213.1C55.6866 212.913 55.8999 212.727 56.0733 212.54C56.2466 212.42 56.4133 212.36 56.5733 212.36C56.7733 212.36 56.9333 212.427 57.0533 212.56C57.1866 212.693 57.2533 212.853 57.2533 213.04C57.2533 213.267 57.1466 213.467 56.9333 213.64C56.5599 214.053 56.0533 214.42 55.4133 214.74C54.7733 215.047 54.0933 215.2 53.3733 215.2ZM61.9681 214.18C61.9681 214.407 61.8881 214.6 61.7281 214.76C61.5681 214.92 61.3748 215 61.1481 215C60.9215 215 60.7348 214.92 60.5881 214.76C60.4415 214.6 60.3681 214.407 60.3681 214.18V201C60.3681 200.773 60.4415 200.587 60.5881 200.44C60.7481 200.28 60.9415 200.2 61.1681 200.2C61.4081 200.2 61.6015 200.28 61.7481 200.44C61.8948 200.587 61.9681 200.773 61.9681 201V214.18ZM72.8637 204.66C73.1037 204.66 73.2971 204.74 73.4437 204.9C73.5904 205.047 73.6638 205.233 73.6638 205.46V210.92C73.6638 212.267 73.2838 213.313 72.5237 214.06C71.7771 214.793 70.7304 215.16 69.3837 215.16C68.0504 215.16 67.0037 214.793 66.2437 214.06C65.4971 213.313 65.1237 212.267 65.1237 210.92V205.46C65.1237 205.233 65.1971 205.047 65.3437 204.9C65.5037 204.74 65.6971 204.66 65.9237 204.66C66.1637 204.66 66.3571 204.74 66.5037 204.9C66.6504 205.047 66.7237 205.233 66.7237 205.46V210.92C66.7237 211.827 66.9571 212.513 67.4237 212.98C67.8904 213.447 68.5437 213.68 69.3837 213.68C70.2504 213.68 70.9104 213.447 71.3637 212.98C71.8304 212.513 72.0637 211.827 72.0637 210.92V205.46C72.0637 205.233 72.1371 205.047 72.2837 204.9C72.4437 204.74 72.6371 204.66 72.8637 204.66ZM81.7177 204.5C82.6243 204.5 83.3577 204.733 83.9177 205.2C84.491 205.653 84.871 206.3 85.0577 207.14H84.7577L84.8977 206.78C85.0577 206.407 85.331 206.047 85.7177 205.7C86.1043 205.353 86.551 205.067 87.0577 204.84C87.5643 204.613 88.091 204.5 88.6377 204.5C89.5177 204.5 90.211 204.693 90.7177 205.08C91.2243 205.453 91.5843 205.96 91.7977 206.6C92.0243 207.227 92.1377 207.933 92.1377 208.72V214.18C92.1377 214.407 92.0577 214.6 91.8977 214.76C91.751 214.92 91.5643 215 91.3377 215C91.0977 215 90.9043 214.92 90.7577 214.76C90.611 214.6 90.5377 214.407 90.5377 214.18V208.76C90.5377 208.24 90.4577 207.773 90.2977 207.36C90.151 206.933 89.9043 206.6 89.5577 206.36C89.2243 206.107 88.7643 205.98 88.1777 205.98C87.631 205.98 87.131 206.107 86.6777 206.36C86.2243 206.6 85.8643 206.933 85.5977 207.36C85.331 207.773 85.1977 208.24 85.1977 208.76V214.18C85.1977 214.407 85.1243 214.6 84.9777 214.76C84.831 214.92 84.6377 215 84.3977 215C84.171 215 83.9777 214.92 83.8177 214.76C83.671 214.6 83.5977 214.407 83.5977 214.18V208.7C83.5977 208.193 83.5243 207.74 83.3777 207.34C83.2443 206.927 83.011 206.6 82.6777 206.36C82.3443 206.107 81.8843 205.98 81.2977 205.98C80.7643 205.98 80.2777 206.107 79.8377 206.36C79.3977 206.6 79.0443 206.927 78.7777 207.34C78.511 207.74 78.3777 208.193 78.3777 208.7V214.18C78.3777 214.407 78.2977 214.6 78.1377 214.76C77.991 214.92 77.8043 215 77.5777 215C77.351 215 77.1577 214.92 76.9977 214.76C76.851 214.6 76.7777 214.407 76.7777 214.18V205.46C76.7777 205.233 76.851 205.047 76.9977 204.9C77.1577 204.74 77.351 204.66 77.5777 204.66C77.8177 204.66 78.011 204.74 78.1577 204.9C78.3043 205.047 78.3777 205.233 78.3777 205.46V206.98L77.9377 207.46C77.991 207.113 78.1243 206.767 78.3377 206.42C78.5643 206.073 78.851 205.753 79.1977 205.46C79.5443 205.167 79.931 204.933 80.3577 204.76C80.7843 204.587 81.2377 204.5 81.7177 204.5ZM106.986 201C107.959 201 108.812 201.187 109.546 201.56C110.292 201.92 110.912 202.427 111.406 203.08C111.899 203.733 112.266 204.487 112.506 205.34C112.759 206.18 112.886 207.067 112.886 208C112.886 209.28 112.666 210.453 112.226 211.52C111.786 212.573 111.132 213.42 110.266 214.06C109.399 214.687 108.306 215 106.986 215H101.986C101.759 215 101.566 214.92 101.406 214.76C101.259 214.6 101.186 214.407 101.186 214.18V201.8C101.186 201.573 101.259 201.387 101.406 201.24C101.566 201.08 101.759 201 101.986 201H106.986ZM106.786 213.44C107.812 213.44 108.646 213.193 109.286 212.7C109.939 212.207 110.412 211.547 110.706 210.72C111.012 209.893 111.166 208.987 111.166 208C111.166 207.28 111.079 206.593 110.906 205.94C110.746 205.273 110.486 204.687 110.126 204.18C109.779 203.673 109.326 203.273 108.766 202.98C108.219 202.687 107.559 202.54 106.786 202.54H102.686L102.846 202.38V213.64L102.726 213.44H106.786ZM117.351 214.18C117.351 214.407 117.265 214.6 117.091 214.76C116.931 214.92 116.738 215 116.511 215C116.258 215 116.058 214.92 115.911 214.76C115.765 214.6 115.691 214.407 115.691 214.18V201.82C115.691 201.58 115.771 201.387 115.931 201.24C116.091 201.08 116.291 201 116.531 201C116.758 201 116.951 201.08 117.111 201.24C117.271 201.387 117.351 201.58 117.351 201.82V214.18ZM121.697 215C121.457 215 121.264 214.92 121.117 214.76C120.97 214.6 120.897 214.407 120.897 214.18V201C120.897 200.773 120.97 200.587 121.117 200.44C121.264 200.28 121.457 200.2 121.697 200.2C121.924 200.2 122.11 200.28 122.257 200.44C122.417 200.587 122.497 200.773 122.497 201V214.18C122.497 214.407 122.417 214.6 122.257 214.76C122.11 214.92 121.924 215 121.697 215ZM128.337 204.6C128.55 204.6 128.73 204.687 128.877 204.86C129.037 205.02 129.117 205.187 129.117 205.36C129.117 205.587 129.01 205.787 128.797 205.96L122.317 211.62L122.257 209.76L127.777 204.84C127.937 204.68 128.124 204.6 128.337 204.6ZM128.557 214.98C128.33 214.98 128.13 214.893 127.957 214.72L123.697 210.18L124.897 209.08L129.117 213.6C129.277 213.773 129.357 213.973 129.357 214.2C129.357 214.44 129.264 214.633 129.077 214.78C128.89 214.913 128.717 214.98 128.557 214.98ZM136.155 215.2C135.089 215.2 134.155 214.973 133.355 214.52C132.555 214.067 131.929 213.447 131.475 212.66C131.035 211.86 130.815 210.94 130.815 209.9C130.815 208.74 131.042 207.753 131.495 206.94C131.962 206.113 132.562 205.487 133.295 205.06C134.042 204.62 134.829 204.4 135.655 204.4C136.269 204.4 136.862 204.513 137.435 204.74C138.009 204.967 138.515 205.3 138.955 205.74C139.395 206.167 139.749 206.687 140.015 207.3C140.282 207.9 140.422 208.573 140.435 209.32C140.435 209.533 140.355 209.713 140.195 209.86C140.035 210.007 139.849 210.08 139.635 210.08H131.735L131.375 208.7H139.075L138.755 208.98V208.54C138.702 207.993 138.515 207.527 138.195 207.14C137.889 206.74 137.509 206.433 137.055 206.22C136.615 206.007 136.149 205.9 135.655 205.9C135.255 205.9 134.855 205.973 134.455 206.12C134.069 206.253 133.715 206.48 133.395 206.8C133.089 207.107 132.835 207.507 132.635 208C132.449 208.493 132.355 209.087 132.355 209.78C132.355 210.553 132.509 211.233 132.815 211.82C133.135 212.407 133.575 212.873 134.135 213.22C134.695 213.553 135.349 213.72 136.095 213.72C136.562 213.72 136.969 213.66 137.315 213.54C137.662 213.42 137.962 213.273 138.215 213.1C138.469 212.913 138.682 212.727 138.855 212.54C139.029 212.42 139.195 212.36 139.355 212.36C139.555 212.36 139.715 212.427 139.835 212.56C139.969 212.693 140.035 212.853 140.035 213.04C140.035 213.267 139.929 213.467 139.715 213.64C139.342 214.053 138.835 214.42 138.195 214.74C137.555 215.047 136.875 215.2 136.155 215.2ZM147.93 204.5C148.837 204.5 149.57 204.733 150.13 205.2C150.703 205.653 151.083 206.3 151.27 207.14H150.97L151.11 206.78C151.27 206.407 151.543 206.047 151.93 205.7C152.317 205.353 152.763 205.067 153.27 204.84C153.777 204.613 154.303 204.5 154.85 204.5C155.73 204.5 156.423 204.693 156.93 205.08C157.437 205.453 157.797 205.96 158.01 206.6C158.237 207.227 158.35 207.933 158.35 208.72V214.18C158.35 214.407 158.27 214.6 158.11 214.76C157.963 214.92 157.777 215 157.55 215C157.31 215 157.117 214.92 156.97 214.76C156.823 214.6 156.75 214.407 156.75 214.18V208.76C156.75 208.24 156.67 207.773 156.51 207.36C156.363 206.933 156.117 206.6 155.77 206.36C155.437 206.107 154.977 205.98 154.39 205.98C153.843 205.98 153.343 206.107 152.89 206.36C152.437 206.6 152.077 206.933 151.81 207.36C151.543 207.773 151.41 208.24 151.41 208.76V214.18C151.41 214.407 151.337 214.6 151.19 214.76C151.043 214.92 150.85 215 150.61 215C150.383 215 150.19 214.92 150.03 214.76C149.883 214.6 149.81 214.407 149.81 214.18V208.7C149.81 208.193 149.737 207.74 149.59 207.34C149.457 206.927 149.223 206.6 148.89 206.36C148.557 206.107 148.097 205.98 147.51 205.98C146.977 205.98 146.49 206.107 146.05 206.36C145.61 206.6 145.257 206.927 144.99 207.34C144.723 207.74 144.59 208.193 144.59 208.7V214.18C144.59 214.407 144.51 214.6 144.35 214.76C144.203 214.92 144.017 215 143.79 215C143.563 215 143.37 214.92 143.21 214.76C143.063 214.6 142.99 214.407 142.99 214.18V205.46C142.99 205.233 143.063 205.047 143.21 204.9C143.37 204.74 143.563 204.66 143.79 204.66C144.03 204.66 144.223 204.74 144.37 204.9C144.517 205.047 144.59 205.233 144.59 205.46V206.98L144.15 207.46C144.203 207.113 144.337 206.767 144.55 206.42C144.777 206.073 145.063 205.753 145.41 205.46C145.757 205.167 146.143 204.933 146.57 204.76C146.997 204.587 147.45 204.5 147.93 204.5ZM169.98 204.56C170.207 204.56 170.394 204.64 170.54 204.8C170.7 204.947 170.78 205.133 170.78 205.36V214.18C170.78 214.407 170.7 214.6 170.54 214.76C170.394 214.92 170.207 215 169.98 215C169.74 215 169.547 214.92 169.4 214.76C169.254 214.6 169.18 214.407 169.18 214.18V212.28L169.56 212.24C169.56 212.533 169.46 212.853 169.26 213.2C169.06 213.547 168.787 213.873 168.44 214.18C168.094 214.473 167.68 214.72 167.2 214.92C166.734 215.107 166.227 215.2 165.68 215.2C164.774 215.2 163.96 214.967 163.24 214.5C162.52 214.02 161.947 213.373 161.52 212.56C161.107 211.747 160.9 210.82 160.9 209.78C160.9 208.727 161.107 207.8 161.52 207C161.947 206.187 162.52 205.553 163.24 205.1C163.96 204.633 164.76 204.4 165.64 204.4C166.214 204.4 166.747 204.493 167.24 204.68C167.734 204.867 168.16 205.12 168.52 205.44C168.894 205.76 169.18 206.113 169.38 206.5C169.594 206.887 169.7 207.273 169.7 207.66L169.18 207.54V205.36C169.18 205.133 169.254 204.947 169.4 204.8C169.547 204.64 169.74 204.56 169.98 204.56ZM165.86 213.72C166.527 213.72 167.114 213.547 167.62 213.2C168.14 212.853 168.54 212.387 168.82 211.8C169.114 211.2 169.26 210.527 169.26 209.78C169.26 209.047 169.114 208.387 168.82 207.8C168.54 207.2 168.14 206.733 167.62 206.4C167.114 206.053 166.527 205.88 165.86 205.88C165.207 205.88 164.62 206.047 164.1 206.38C163.594 206.713 163.194 207.173 162.9 207.76C162.607 208.347 162.46 209.02 162.46 209.78C162.46 210.527 162.6 211.2 162.88 211.8C163.174 212.387 163.574 212.853 164.08 213.2C164.6 213.547 165.194 213.72 165.86 213.72ZM173.316 213.36C173.196 213.187 173.142 213.007 173.156 212.82C173.169 212.62 173.282 212.447 173.496 212.3C173.629 212.207 173.782 212.167 173.956 212.18C174.142 212.193 174.309 212.28 174.456 212.44C174.829 212.88 175.256 213.233 175.736 213.5C176.216 213.753 176.802 213.88 177.496 213.88C177.816 213.867 178.136 213.813 178.456 213.72C178.776 213.627 179.042 213.467 179.256 213.24C179.482 213 179.596 212.687 179.596 212.3C179.596 211.927 179.482 211.633 179.256 211.42C179.029 211.193 178.736 211.013 178.376 210.88C178.016 210.733 177.622 210.607 177.196 210.5C176.756 210.38 176.322 210.247 175.896 210.1C175.469 209.94 175.082 209.747 174.736 209.52C174.402 209.28 174.129 208.987 173.916 208.64C173.716 208.28 173.616 207.847 173.616 207.34C173.616 206.74 173.776 206.22 174.096 205.78C174.429 205.34 174.869 205 175.416 204.76C175.976 204.52 176.582 204.4 177.236 204.4C177.609 204.4 177.996 204.447 178.396 204.54C178.809 204.62 179.209 204.767 179.596 204.98C179.982 205.18 180.322 205.46 180.616 205.82C180.736 205.953 180.802 206.12 180.816 206.32C180.829 206.52 180.742 206.7 180.556 206.86C180.409 206.967 180.242 207.013 180.056 207C179.882 206.987 179.736 206.92 179.616 206.8C179.336 206.467 178.982 206.213 178.556 206.04C178.142 205.853 177.682 205.76 177.176 205.76C176.856 205.76 176.542 205.807 176.236 205.9C175.929 205.993 175.669 206.153 175.456 206.38C175.256 206.593 175.156 206.893 175.156 207.28C175.169 207.64 175.289 207.933 175.516 208.16C175.742 208.387 176.049 208.573 176.436 208.72C176.822 208.853 177.249 208.987 177.716 209.12C178.142 209.227 178.549 209.353 178.936 209.5C179.336 209.633 179.696 209.813 180.016 210.04C180.336 210.267 180.589 210.56 180.776 210.92C180.962 211.267 181.056 211.707 181.056 212.24C181.056 212.853 180.882 213.387 180.536 213.84C180.189 214.28 179.729 214.62 179.156 214.86C178.596 215.087 177.989 215.2 177.336 215.2C176.602 215.2 175.876 215.06 175.156 214.78C174.449 214.5 173.836 214.027 173.316 213.36ZM184.478 215C184.238 215 184.045 214.92 183.898 214.76C183.752 214.6 183.678 214.407 183.678 214.18V201C183.678 200.773 183.752 200.587 183.898 200.44C184.045 200.28 184.238 200.2 184.478 200.2C184.705 200.2 184.892 200.28 185.038 200.44C185.198 200.587 185.278 200.773 185.278 201V214.18C185.278 214.407 185.198 214.6 185.038 214.76C184.892 214.92 184.705 215 184.478 215ZM191.118 204.6C191.332 204.6 191.512 204.687 191.658 204.86C191.818 205.02 191.898 205.187 191.898 205.36C191.898 205.587 191.792 205.787 191.578 205.96L185.098 211.62L185.038 209.76L190.558 204.84C190.718 204.68 190.905 204.6 191.118 204.6ZM191.338 214.98C191.112 214.98 190.912 214.893 190.738 214.72L186.478 210.18L187.678 209.08L191.898 213.6C192.058 213.773 192.138 213.973 192.138 214.2C192.138 214.44 192.045 214.633 191.858 214.78C191.672 214.913 191.498 214.98 191.338 214.98ZM196.146 214.18C196.146 214.407 196.066 214.6 195.906 214.76C195.759 214.92 195.572 215 195.346 215C195.106 215 194.912 214.92 194.766 214.76C194.619 214.6 194.546 214.407 194.546 214.18V205.3C194.546 205.073 194.619 204.887 194.766 204.74C194.926 204.58 195.119 204.5 195.346 204.5C195.572 204.5 195.759 204.58 195.906 204.74C196.066 204.887 196.146 205.073 196.146 205.3V214.18ZM195.346 203.16C195.012 203.16 194.766 203.093 194.606 202.96C194.446 202.827 194.366 202.62 194.366 202.34V202.06C194.366 201.78 194.452 201.573 194.626 201.44C194.799 201.307 195.046 201.24 195.366 201.24C195.686 201.24 195.926 201.307 196.086 201.44C196.246 201.573 196.326 201.78 196.326 202.06V202.34C196.326 202.62 196.239 202.827 196.066 202.96C195.906 203.093 195.666 203.16 195.346 203.16ZM204.31 204.4C205.217 204.4 205.93 204.587 206.45 204.96C206.97 205.333 207.337 205.833 207.55 206.46C207.777 207.087 207.89 207.787 207.89 208.56V214.18C207.89 214.407 207.81 214.6 207.65 214.76C207.503 214.92 207.317 215 207.09 215C206.863 215 206.67 214.92 206.51 214.76C206.363 214.6 206.29 214.407 206.29 214.18V208.6C206.29 208.093 206.21 207.64 206.05 207.24C205.903 206.827 205.65 206.5 205.29 206.26C204.943 206.007 204.463 205.88 203.85 205.88C203.29 205.88 202.777 206.007 202.31 206.26C201.843 206.5 201.47 206.827 201.19 207.24C200.91 207.64 200.77 208.093 200.77 208.6V214.18C200.77 214.407 200.69 214.6 200.53 214.76C200.383 214.92 200.197 215 199.97 215C199.743 215 199.55 214.92 199.39 214.76C199.243 214.6 199.17 214.407 199.17 214.18V205.46C199.17 205.233 199.243 205.047 199.39 204.9C199.55 204.74 199.743 204.66 199.97 204.66C200.21 204.66 200.403 204.74 200.55 204.9C200.697 205.047 200.77 205.233 200.77 205.46V206.88L200.37 207.32C200.437 206.973 200.59 206.627 200.83 206.28C201.07 205.92 201.37 205.6 201.73 205.32C202.09 205.04 202.49 204.82 202.93 204.66C203.37 204.487 203.83 204.4 204.31 204.4ZM212.54 214.18C212.54 214.407 212.46 214.6 212.3 214.76C212.153 214.92 211.966 215 211.74 215C211.5 215 211.306 214.92 211.16 214.76C211.013 214.6 210.94 214.407 210.94 214.18V205.3C210.94 205.073 211.013 204.887 211.16 204.74C211.32 204.58 211.513 204.5 211.74 204.5C211.966 204.5 212.153 204.58 212.3 204.74C212.46 204.887 212.54 205.073 212.54 205.3V214.18ZM211.74 203.16C211.406 203.16 211.16 203.093 211 202.96C210.84 202.827 210.76 202.62 210.76 202.34V202.06C210.76 201.78 210.846 201.573 211.02 201.44C211.193 201.307 211.44 201.24 211.76 201.24C212.08 201.24 212.32 201.307 212.48 201.44C212.64 201.573 212.72 201.78 212.72 202.06V202.34C212.72 202.62 212.633 202.827 212.46 202.96C212.3 203.093 212.06 203.16 211.74 203.16Z" fill="black" fill-opacity="0.87"/>
<defs>
<filter id="filter0_d_2_40172" x="0" y="0" width="252" height="245" filterUnits="userSpaceOnUse" color-interpolation-filters="sRGB">
<feFlood flood-opacity="0" result="BackgroundImageFix"/>
<feColorMatrix in="SourceAlpha" type="matrix" values="0 0 0 0 0 0 0 0 0 0 0 0 0 0 0 0 0 0 127 0" result="hardAlpha"/>
<feOffset dy="4"/>
<feGaussianBlur stdDeviation="2"/>
<feComposite in2="hardAlpha" operator="out"/>
<feColorMatrix type="matrix" values="0 0 0 0 0 0 0 0 0 0 0 0 0 0 0 0 0 0 0.25 0"/>
<feBlend mode="normal" in2="BackgroundImageFix" result="effect1_dropShadow_2_40172"/>
<feBlend mode="normal" in="SourceGraphic" in2="effect1_dropShadow_2_40172" result="shape"/>
</filter>
</defs>
</svg>
