<svg width="25" height="32" viewBox="0 0 25 32" fill="none" xmlns="http://www.w3.org/2000/svg">
<path d="M12.843 9.45257C13.232 8.94635 13.232 8.12562 12.843 7.61941C12.4539 7.11319 11.8232 7.11319 11.4341 7.61941L5.45674 15.3969C5.07959 15.8876 5.0664 16.6778 5.42681 17.1893L10.9061 24.9668C11.2778 25.4945 11.908 25.5302 12.3136 25.0464C12.7192 24.5627 12.7466 23.7427 12.3748 23.215L7.5401 16.3524L12.843 9.45257Z" fill="white"/>
<path opacity="0.3" d="M19.8167 9.45257C20.2057 8.94635 20.2057 8.12562 19.8167 7.61941C19.4276 7.11319 18.7969 7.11319 18.4078 7.61941L12.4305 15.3969C12.0533 15.8876 12.0401 16.6778 12.4005 17.1893L17.8798 24.9668C18.2516 25.4945 18.8817 25.5302 19.2873 25.0464C19.6929 24.5627 19.7203 23.7427 19.3485 23.215L14.5138 16.3524L19.8167 9.45257Z" fill="white"/>
</svg>
