<svg width="158" height="39" viewBox="0 0 158 39" fill="none" xmlns="http://www.w3.org/2000/svg">
<rect width="158" height="39" rx="4" fill="white"/>
<rect x="0.5" y="0.5" width="157" height="38" rx="3.5" stroke="#5D78FF" stroke-opacity="0.13"/>
<path d="M52.4473 17.612V23.96C52.4473 24.6 52.2513 25.116 51.8593 25.508C51.4673 25.892 50.9433 26.084 50.2873 26.084C49.6073 26.084 49.0633 25.88 48.6553 25.472C48.2553 25.056 48.0553 24.496 48.0553 23.792H48.9073C48.9153 24.248 49.0273 24.62 49.2433 24.908C49.4673 25.196 49.8153 25.34 50.2873 25.34C50.7353 25.34 51.0673 25.208 51.2833 24.944C51.4993 24.68 51.6073 24.352 51.6073 23.96V17.612H52.4473ZM54.1756 22.712C54.1756 22.04 54.3076 21.452 54.5716 20.948C54.8436 20.436 55.2156 20.044 55.6876 19.772C56.1676 19.492 56.7076 19.352 57.3076 19.352C57.9316 19.352 58.4676 19.496 58.9156 19.784C59.3716 20.072 59.6996 20.44 59.8996 20.888V19.448H60.7396V26H59.8996V24.548C59.6916 24.996 59.3596 25.368 58.9036 25.664C58.4556 25.952 57.9196 26.096 57.2956 26.096C56.7036 26.096 56.1676 25.956 55.6876 25.676C55.2156 25.396 54.8436 25 54.5716 24.488C54.3076 23.976 54.1756 23.384 54.1756 22.712ZM59.8996 22.724C59.8996 22.196 59.7916 21.732 59.5756 21.332C59.3596 20.932 59.0636 20.624 58.6876 20.408C58.3196 20.192 57.9116 20.084 57.4636 20.084C56.9996 20.084 56.5836 20.188 56.2156 20.396C55.8476 20.604 55.5556 20.908 55.3396 21.308C55.1316 21.7 55.0276 22.168 55.0276 22.712C55.0276 23.248 55.1316 23.72 55.3396 24.128C55.5556 24.528 55.8476 24.836 56.2156 25.052C56.5836 25.26 56.9996 25.364 57.4636 25.364C57.9116 25.364 58.3196 25.256 58.6876 25.04C59.0636 24.824 59.3596 24.516 59.5756 24.116C59.7916 23.716 59.8996 23.252 59.8996 22.724ZM65.7293 19.328C66.5133 19.328 67.1533 19.572 67.6493 20.06C68.1453 20.54 68.3933 21.24 68.3933 22.16V26H67.5653V22.256C67.5653 21.544 67.3853 21 67.0253 20.624C66.6733 20.248 66.1893 20.06 65.5733 20.06C64.9413 20.06 64.4373 20.26 64.0613 20.66C63.6853 21.06 63.4973 21.648 63.4973 22.424V26H62.6573V19.448H63.4973V20.564C63.7053 20.164 64.0053 19.86 64.3973 19.652C64.7893 19.436 65.2333 19.328 65.7293 19.328ZM69.867 22.712C69.867 22.04 69.999 21.452 70.263 20.948C70.535 20.436 70.907 20.044 71.379 19.772C71.859 19.492 72.399 19.352 72.999 19.352C73.623 19.352 74.159 19.496 74.607 19.784C75.063 20.072 75.391 20.44 75.591 20.888V19.448H76.431V26H75.591V24.548C75.383 24.996 75.051 25.368 74.595 25.664C74.147 25.952 73.611 26.096 72.987 26.096C72.395 26.096 71.859 25.956 71.379 25.676C70.907 25.396 70.535 25 70.263 24.488C69.999 23.976 69.867 23.384 69.867 22.712ZM75.591 22.724C75.591 22.196 75.483 21.732 75.267 21.332C75.051 20.932 74.755 20.624 74.379 20.408C74.011 20.192 73.603 20.084 73.155 20.084C72.691 20.084 72.275 20.188 71.907 20.396C71.539 20.604 71.247 20.908 71.031 21.308C70.823 21.7 70.719 22.168 70.719 22.712C70.719 23.248 70.823 23.72 71.031 24.128C71.247 24.528 71.539 24.836 71.907 25.052C72.275 25.26 72.691 25.364 73.155 25.364C73.603 25.364 74.011 25.256 74.379 25.04C74.755 24.824 75.051 24.516 75.267 24.116C75.483 23.716 75.591 23.252 75.591 22.724ZM82.4816 25.316H85.4936V26H81.6416V17.612H82.4816V25.316ZM86.3084 22.712C86.3084 22.04 86.4404 21.452 86.7044 20.948C86.9764 20.436 87.3484 20.044 87.8204 19.772C88.3004 19.492 88.8404 19.352 89.4404 19.352C90.0644 19.352 90.6004 19.496 91.0484 19.784C91.5044 20.072 91.8324 20.44 92.0324 20.888V19.448H92.8724V26H92.0324V24.548C91.8244 24.996 91.4924 25.368 91.0364 25.664C90.5884 25.952 90.0524 26.096 89.4284 26.096C88.8364 26.096 88.3004 25.956 87.8204 25.676C87.3484 25.396 86.9764 25 86.7044 24.488C86.4404 23.976 86.3084 23.384 86.3084 22.712ZM92.0324 22.724C92.0324 22.196 91.9244 21.732 91.7084 21.332C91.4924 20.932 91.1964 20.624 90.8204 20.408C90.4524 20.192 90.0444 20.084 89.5964 20.084C89.1324 20.084 88.7164 20.188 88.3484 20.396C87.9804 20.604 87.6884 20.908 87.4724 21.308C87.2644 21.7 87.1604 22.168 87.1604 22.712C87.1604 23.248 87.2644 23.72 87.4724 24.128C87.6884 24.528 87.9804 24.836 88.3484 25.052C88.7164 25.26 89.1324 25.364 89.5964 25.364C90.0444 25.364 90.4524 25.256 90.8204 25.04C91.1964 24.824 91.4924 24.516 91.7084 24.116C91.9244 23.716 92.0324 23.252 92.0324 22.724ZM95.6181 20.888C95.8261 20.448 96.1541 20.084 96.6021 19.796C97.0581 19.5 97.5981 19.352 98.2221 19.352C98.8141 19.352 99.3461 19.492 99.8181 19.772C100.298 20.044 100.67 20.436 100.934 20.948C101.206 21.452 101.342 22.04 101.342 22.712C101.342 23.384 101.206 23.976 100.934 24.488C100.67 25 100.298 25.396 99.8181 25.676C99.3461 25.956 98.8141 26.096 98.2221 26.096C97.6061 26.096 97.0701 25.952 96.6141 25.664C96.1581 25.368 95.8261 25 95.6181 24.56V29.096H94.7901V19.448H95.6181V20.888ZM100.49 22.712C100.49 22.168 100.382 21.7 100.166 21.308C99.9581 20.908 99.6701 20.604 99.3021 20.396C98.9341 20.188 98.5181 20.084 98.0541 20.084C97.6061 20.084 97.1941 20.192 96.8181 20.408C96.4501 20.624 96.1581 20.932 95.9421 21.332C95.7261 21.732 95.6181 22.196 95.6181 22.724C95.6181 23.252 95.7261 23.716 95.9421 24.116C96.1581 24.516 96.4501 24.824 96.8181 25.04C97.1941 25.256 97.6061 25.364 98.0541 25.364C98.5181 25.364 98.9341 25.26 99.3021 25.052C99.6701 24.836 99.9581 24.528 100.166 24.128C100.382 23.72 100.49 23.248 100.49 22.712ZM105.756 26.096C105.14 26.096 104.584 25.96 104.088 25.688C103.6 25.408 103.212 25.016 102.924 24.512C102.644 24 102.504 23.404 102.504 22.724C102.504 22.044 102.648 21.452 102.936 20.948C103.224 20.436 103.616 20.044 104.112 19.772C104.608 19.492 105.164 19.352 105.78 19.352C106.396 19.352 106.952 19.492 107.448 19.772C107.952 20.044 108.344 20.436 108.624 20.948C108.912 21.452 109.056 22.044 109.056 22.724C109.056 23.396 108.912 23.988 108.624 24.5C108.336 25.012 107.94 25.408 107.436 25.688C106.932 25.96 106.372 26.096 105.756 26.096ZM105.756 25.364C106.188 25.364 106.588 25.268 106.956 25.076C107.324 24.876 107.62 24.58 107.844 24.188C108.076 23.788 108.192 23.3 108.192 22.724C108.192 22.148 108.08 21.664 107.856 21.272C107.632 20.872 107.336 20.576 106.968 20.384C106.6 20.184 106.2 20.084 105.768 20.084C105.336 20.084 104.936 20.184 104.568 20.384C104.2 20.576 103.904 20.872 103.68 21.272C103.464 21.664 103.356 22.148 103.356 22.724C103.356 23.3 103.464 23.788 103.68 24.188C103.904 24.58 104.196 24.876 104.556 25.076C104.924 25.268 105.324 25.364 105.756 25.364ZM111.427 20.612C111.611 20.204 111.891 19.888 112.267 19.664C112.651 19.44 113.119 19.328 113.671 19.328V20.204H113.443C112.835 20.204 112.347 20.368 111.979 20.696C111.611 21.024 111.427 21.572 111.427 22.34V26H110.587V19.448H111.427V20.612ZM114.551 22.712C114.551 22.04 114.683 21.452 114.947 20.948C115.219 20.436 115.591 20.044 116.063 19.772C116.543 19.492 117.083 19.352 117.683 19.352C118.307 19.352 118.843 19.496 119.291 19.784C119.747 20.072 120.075 20.44 120.275 20.888V19.448H121.115V26H120.275V24.548C120.067 24.996 119.735 25.368 119.279 25.664C118.831 25.952 118.295 26.096 117.671 26.096C117.079 26.096 116.543 25.956 116.063 25.676C115.591 25.396 115.219 25 114.947 24.488C114.683 23.976 114.551 23.384 114.551 22.712ZM120.275 22.724C120.275 22.196 120.167 21.732 119.951 21.332C119.735 20.932 119.439 20.624 119.063 20.408C118.695 20.192 118.287 20.084 117.839 20.084C117.375 20.084 116.959 20.188 116.591 20.396C116.223 20.604 115.931 20.908 115.715 21.308C115.507 21.7 115.403 22.168 115.403 22.712C115.403 23.248 115.507 23.72 115.715 24.128C115.931 24.528 116.223 24.836 116.591 25.052C116.959 25.26 117.375 25.364 117.839 25.364C118.287 25.364 118.695 25.256 119.063 25.04C119.439 24.824 119.735 24.516 119.951 24.116C120.167 23.716 120.275 23.252 120.275 22.724ZM126.104 19.328C126.888 19.328 127.528 19.572 128.024 20.06C128.52 20.54 128.768 21.24 128.768 22.16V26H127.94V22.256C127.94 21.544 127.76 21 127.4 20.624C127.048 20.248 126.564 20.06 125.948 20.06C125.316 20.06 124.812 20.26 124.436 20.66C124.06 21.06 123.872 21.648 123.872 22.424V26H123.032V19.448H123.872V20.564C124.08 20.164 124.38 19.86 124.772 19.652C125.164 19.436 125.608 19.328 126.104 19.328Z" fill="#595D6E"/>
<path d="M33 29H21C19.8954 29 19 28.1046 19 27V11C19 9.89543 19.8954 9 21 9H28C28.0109 9.00047 28.0217 9.00249 28.032 9.006C28.0418 9.00902 28.0518 9.01103 28.062 9.012C28.1502 9.01765 28.2373 9.0348 28.321 9.063L28.349 9.072C28.3717 9.07968 28.3937 9.08904 28.415 9.1C28.5239 9.14842 28.6232 9.21618 28.708 9.3L34.708 15.3C34.7918 15.3848 34.8596 15.4841 34.908 15.593C34.918 15.615 34.925 15.638 34.933 15.661L34.942 15.687C34.9699 15.7704 34.9864 15.8572 34.991 15.945C34.9926 15.9542 34.9949 15.9632 34.998 15.972C34.9998 15.9812 35.0004 15.9906 35.0001 16V27C35.0001 28.1046 34.1046 29 33 29ZM21 11V27H33V17H28C27.4477 17 27 16.5523 27 16V11H21ZM29 12.414V15H31.586L29 12.414Z" fill="#2E3A59"/>
</svg>
