<svg width="52" height="52" viewBox="0 0 52 52" fill="none" xmlns="http://www.w3.org/2000/svg">
<path d="M51.6112 25.8228C51.6112 39.7787 40.0611 51.086 25.8056 51.086C11.5501 51.086 6.88579e-06 39.7787 4.43552e-06 25.8228C1.98525e-06 11.8669 11.5501 0.559568 25.8056 0.559566C40.0611 0.559563 51.6112 11.8669 51.6112 25.8228ZM27.5745 37.4255L41.674 23.6224C42.6521 22.6649 42.6521 21.1165 41.674 20.1691L39.905 18.4374C38.9269 17.4798 37.3453 17.4798 36.3776 18.4374L25.8056 28.7871L15.2336 18.4374C14.2555 17.4798 12.6739 17.4798 11.7062 18.4374L9.93724 20.1691C8.95913 21.1267 8.95913 22.6751 9.93724 23.6224L24.0367 37.4255C25.0148 38.3831 26.5964 38.3831 27.5745 37.4255Z" fill="black"/>
</svg>
