<svg width="52" height="54" viewBox="0 0 52 54" fill="none" xmlns="http://www.w3.org/2000/svg">
<path d="M-0.000360178 26.7124C-0.000358953 11.9559 11.5497 -0.00010287 25.8052 -0.000101558C40.0608 -0.000100245 51.6108 11.9559 51.6108 26.7124C51.6108 41.4689 40.0608 53.4249 25.8052 53.4249C11.5497 53.4249 -0.000361404 41.4689 -0.000360178 26.7124ZM24.0363 14.444L9.93688 29.039C8.95876 30.0515 8.95876 31.6887 9.93688 32.6904L11.7058 34.5215C12.6839 35.534 14.2656 35.534 15.2333 34.5215L25.8052 23.578L36.3772 34.5215C37.3553 35.534 38.937 35.534 39.9047 34.5215L41.6736 32.6904C42.6517 31.6779 42.6517 30.0407 41.6736 29.039L27.5742 14.444C26.5961 13.4316 25.0144 13.4316 24.0363 14.444Z" fill="black"/>
</svg>
