<svg width="73" height="68" viewBox="0 0 73 68" fill="none" xmlns="http://www.w3.org/2000/svg">
<g clip-path="url(#clip0_2_38918)">
<path d="M36.5 0C16.3429 0 0 15.1183 0 33.7651C0 52.4119 16.3429 67.5303 36.5 67.5303C56.6571 67.5303 73 52.4119 73 33.7651C73 15.1183 56.6571 0 36.5 0ZM36.5 63.3096C18.8916 63.3096 4.5625 50.0542 4.5625 33.7651C4.5625 17.4761 18.8916 4.22064 36.5 4.22064C54.1084 4.22064 68.4375 17.4761 68.4375 33.7651C68.4375 50.0542 54.1084 63.3096 36.5 63.3096Z" fill="#B0BEC5"/>
<path d="M19.0977 36.3821L19.0972 36.3816C17.5298 34.9354 17.5291 32.5991 19.0972 31.1481L19.0975 31.1478C20.6838 29.6771 23.2792 29.6765 24.87 31.1481L24.87 31.1482L31.3219 37.1161L31.6615 37.4302L32.001 37.1161L48.1306 22.1951C49.7214 20.7235 52.3173 20.7241 53.903 22.1947L53.9038 22.1955C55.4713 23.6423 55.4719 25.9786 53.9034 27.4295L34.5482 45.3346C32.9573 46.8062 30.3614 46.8056 28.7758 45.335L28.7753 45.3346L19.0977 36.3821Z" fill="#27AE60" stroke="#27AE60"/>
</g>
<defs>
<clipPath id="clip0_2_38918">
<rect width="73" height="67.5303" fill="white"/>
</clipPath>
</defs>
</svg>
