<svg width="28" height="28" viewBox="0 0 28 28" fill="none" xmlns="http://www.w3.org/2000/svg">
<g clip-path="url(#clip0_2_37897)">
<path fill-rule="evenodd" clip-rule="evenodd" d="M7 2.44444V25.5556C7 26.9056 8.07731 28 9.40625 28H25.5938C26.9227 28 28 26.9056 28 25.5556V6.43236C28 5.77939 27.7428 5.15357 27.2858 4.6944L23.3168 0.706486C22.8664 0.253864 22.2583 0 21.6248 0H9.40625C8.07731 0 7 1.09442 7 2.44444ZM8.53125 25.5556V2.44444C8.53125 1.95352 8.923 1.55556 9.40625 1.55556H21.3281V6.88889C21.3281 7.80936 22.0627 8.55556 22.9688 8.55556H26.4688V25.5556C26.4688 26.0465 26.077 26.4444 25.5938 26.4444H9.40625C8.923 26.4444 8.53125 26.0465 8.53125 25.5556ZM26.4688 7V6.43236C26.4688 6.19492 26.3752 5.96734 26.2091 5.80037L22.8594 2.43473V6.88889C22.8594 6.95025 22.9083 7 22.9688 7H26.4688Z" fill="#9D9C9B"/>
<path fill-rule="evenodd" clip-rule="evenodd" d="M17.9375 11.4844C17.9375 11.0615 18.2803 10.7188 18.7031 10.7188H23.7344C24.1572 10.7188 24.5 11.0615 24.5 11.4844C24.5 11.9072 24.1572 12.25 23.7344 12.25H18.7031C18.2803 12.25 17.9375 11.9072 17.9375 11.4844Z" fill="#69C997"/>
<path fill-rule="evenodd" clip-rule="evenodd" d="M17.9375 14.9844C17.9375 14.5615 18.2803 14.2188 18.7031 14.2188H23.7344C24.1572 14.2188 24.5 14.5615 24.5 14.9844C24.5 15.4072 24.1572 15.75 23.7344 15.75H18.7031C18.2803 15.75 17.9375 15.4072 17.9375 14.9844Z" fill="#54AD7D"/>
<path fill-rule="evenodd" clip-rule="evenodd" d="M17.9375 18.4844C17.9375 18.0615 18.2803 17.7188 18.7031 17.7188H23.7344C24.1572 17.7188 24.5 18.0615 24.5 18.4844C24.5 18.9072 24.1572 19.25 23.7344 19.25H18.7031C18.2803 19.25 17.9375 18.9072 17.9375 18.4844Z" fill="#2B593D"/>
<path d="M0 8.09375C0 7.36888 0.587626 6.78125 1.3125 6.78125H14.4375C15.1624 6.78125 15.75 7.36888 15.75 8.09375V21.2188C15.75 21.9436 15.1624 22.5312 14.4375 22.5312H1.3125C0.587626 22.5312 0 21.9436 0 21.2188V8.09375Z" fill="#3D8A58"/>
<path d="M4.375 19.05L6.83337 14.4742L4.60229 10.2812H6.30103L7.74255 13.0985L9.15417 10.2812H10.835L8.60388 14.54L11.0623 19.05H9.30969L7.71265 16.0175L6.1156 19.05H4.375Z" fill="white"/>
</g>
<defs>
<clipPath id="clip0_2_37897">
<rect width="28" height="28" fill="white"/>
</clipPath>
</defs>
</svg>
