<svg width="25" height="32" viewBox="0 0 25 32" fill="none" xmlns="http://www.w3.org/2000/svg">
<path fill-rule="evenodd" clip-rule="evenodd" d="M5 0.757227L12.1125 5.93467C12.1891 5.99042 12.2694 6.03069 12.3511 6.05625V16.0977L5.50726 10.991C5.19285 10.7564 5 10.33 5 9.86937V0.757227ZM21.5406 0.618286V9.86805C21.5406 10.3287 21.3477 10.7551 21.0333 10.9897L14.1895 16.0963V5.96697C14.2061 5.95646 14.2227 5.94526 14.239 5.93336L21.5406 0.618286Z" fill="white"/>
<path opacity="0.3" fill-rule="evenodd" clip-rule="evenodd" d="M4.35938 10.715C4.44625 10.5766 4.5559 10.4597 4.68375 10.3739L11.92 5.51445C12.2238 5.31045 12.5882 5.31045 12.8919 5.51445L20.1282 10.3739C20.2267 10.4401 20.3145 10.5247 20.3893 10.6234L12.4555 16.3987C12.4034 16.4366 12.3553 16.4801 12.3114 16.5281C12.2676 16.4801 12.2195 16.4366 12.1673 16.3987L4.35938 10.715Z" fill="white"/>
</svg>
